<svg xmlns="http://www.w3.org/2000/svg" viewBox="0 0 500 383.12"><defs><style>.cls-1{fill:#ebebeb;}.cls-2{fill:#f0f0f0;}.cls-3{fill:#f5f5f5;}.cls-21,.cls-4,.cls-7{fill:#407bff;}.cls-11,.cls-5{opacity:0.7;}.cls-10,.cls-11,.cls-12,.cls-18,.cls-19,.cls-23,.cls-29,.cls-30,.cls-31,.cls-6,.cls-9{fill:#fff;}.cls-14,.cls-16,.cls-23,.cls-29,.cls-30,.cls-31,.cls-7,.cls-9{isolation:isolate;}.cls-21,.cls-8{opacity:0.4;}.cls-10,.cls-14,.cls-27,.cls-31{opacity:0.3;}.cls-12{opacity:0.8;}.cls-13{fill:#e4897b;}.cls-15{fill:#263238;}.cls-16,.cls-19,.cls-23{opacity:0.2;}.cls-17{fill:#de5753;}.cls-18{opacity:0.5;}.cls-20{fill:#ebb376;}.cls-22{fill:#d58745;}.cls-24{fill:#eec1bb;}.cls-25{fill:#d4827d;}.cls-26{fill:#9f5b53;}.cls-28{fill:#892b29;}.cls-29{opacity:0.6;}.cls-30{opacity:0.05;}</style></defs><g id="Layer_2" data-name="Layer 2"><g id="Background_Complete" data-name="Background Complete"><rect class="cls-1" y="337.95" width="500" height="0.25"/><rect class="cls-1" x="416.78" y="354.05" width="33.12" height="0.25"/><rect class="cls-1" x="322.53" y="356.76" width="8.69" height="0.25"/><rect class="cls-1" x="396.59" y="344.76" width="19.19" height="0.25"/><rect class="cls-1" x="52.46" y="346.44" width="43.19" height="0.25"/><rect class="cls-1" x="104.56" y="346.44" width="6.33" height="0.25"/><rect class="cls-1" x="131.47" y="350.67" width="93.68" height="0.25"/><path class="cls-1" d="M237,293.36H43.91a5.72,5.72,0,0,1-5.7-5.71V16.22a5.71,5.71,0,0,1,5.7-5.71H237a5.71,5.71,0,0,1,5.71,5.71V287.65A5.72,5.72,0,0,1,237,293.36ZM43.91,10.76a5.46,5.46,0,0,0-5.45,5.46V287.65a5.46,5.46,0,0,0,5.45,5.46H237a5.47,5.47,0,0,0,5.46-5.46V16.22A5.47,5.47,0,0,0,237,10.76Z"/><path class="cls-1" d="M453.31,293.36H260.21a5.73,5.73,0,0,1-5.71-5.71V16.22a5.72,5.72,0,0,1,5.71-5.71h193.1A5.71,5.71,0,0,1,459,16.22V287.65A5.72,5.72,0,0,1,453.31,293.36ZM260.21,10.76a5.47,5.47,0,0,0-5.46,5.46V287.65a5.47,5.47,0,0,0,5.46,5.46h193.1a5.47,5.47,0,0,0,5.46-5.46V16.22a5.47,5.47,0,0,0-5.46-5.46Z"/><polygon class="cls-2" points="393.93 101.86 285.09 65.1 285 65.02 227.5 6.08 181.38 48.2 180.71 47.46 227.54 4.68 285.63 64.23 393.55 100.68 437.85 39.74 438.66 40.33 393.93 101.86"/><path class="cls-2" d="M55.61,192.34A5.38,5.38,0,1,1,50.23,187,5.38,5.38,0,0,1,55.61,192.34Z"/><path class="cls-2" d="M232.9,5.38A5.38,5.38,0,1,1,227.52,0,5.38,5.38,0,0,1,232.9,5.38Z"/><path class="cls-2" d="M443.63,40a5.38,5.38,0,1,1-5.38-5.38A5.38,5.38,0,0,1,443.63,40Z"/><path class="cls-2" d="M444.1,323.94a5.38,5.38,0,1,1-5.38-5.38A5.38,5.38,0,0,1,444.1,323.94Z"/><path class="cls-2" d="M290.74,64.67a5.38,5.38,0,1,1-5.38-5.38A5.37,5.37,0,0,1,290.74,64.67Z"/><polygon class="cls-2" points="191.35 324.08 190.94 324 56.02 298.52 56.2 297.54 190.71 322.94 284.89 64.49 285.83 64.84 191.35 324.08"/><rect class="cls-2" x="84.66" y="78.48" width="1" height="61.49" transform="translate(-53.07 100.57) rotate(-48.47)"/><polygon class="cls-2" points="438.46 324.37 371.75 283.02 373.21 282.63 443.29 215.2 393.28 101.47 394.2 101.07 444.49 215.44 444.24 215.68 374.01 283.25 438.98 323.51 438.46 324.37"/><polygon class="cls-2" points="56.53 298.3 55.69 297.76 96.01 235.49 49.53 192.37 49.87 192 108.08 128.97 108.43 129.18 373.71 282.64 373.21 283.51 108.27 130.24 50.94 192.32 97.3 235.32 56.53 298.3"/></g><g id="Shadow"><ellipse id="_Path_" data-name="&lt;Path&gt;" class="cls-3" cx="250" cy="371.79" rx="193.89" ry="11.32"/></g><g id="World"><path class="cls-4" d="M241,254.69q4,.33,8,.27a81.27,81.27,0,0,0,79.72-74.59c0-.49.08-1,.11-1.48a81,81,0,0,0-3.46-29.3h0a81.35,81.35,0,0,0-62.71-55.82,83.05,83.05,0,0,0-8.25-1.1,81.29,81.29,0,1,0-13.4,162Z"/><g class="cls-5"><path class="cls-6" d="M241,254.69q4,.33,8,.27a81.27,81.27,0,0,0,79.72-74.59c0-.49.08-1,.11-1.48a81,81,0,0,0-3.46-29.3h0a81.35,81.35,0,0,0-62.71-55.82,83.05,83.05,0,0,0-8.25-1.1,81.29,81.29,0,1,0-13.4,162Z"/></g><path class="cls-7" d="M186.82,193.5c-.27,1.51-2.19,2.05-3.74,2.25l-7,.86c-1.1-2.88-4.52-2.91-6.92-1.78A81.32,81.32,0,0,0,241,254.69q4,.33,8,.27a1.37,1.37,0,0,0,.13-.2c1.22-2.13-.54-4-1.48-5.76-.21-.4-2.21-5.43-1.55-5.45a21.22,21.22,0,0,1-6.33-.82.62.62,0,0,1-.4-.24c-.2-.33.27-.66.64-.74,1-.23,1.95-.28,2.89-.56a3.34,3.34,0,0,0,2.24-1.77c.37-.92.09-2,.3-2.93a4.05,4.05,0,0,1,2.31-2.63,13,13,0,0,1,3.35-.89c-2.45-1.34-.66-4.13-2.59-6-.62-.6-1.52-1.33-1.14-2.1s1.66-.72,1.82-1.53c.11-.56-.48-1-1-1.15a6.29,6.29,0,0,1-1.67-.35,1.5,1.5,0,0,1-.47-2.09c.42-.59,1.2-.77,1.84-1.11s1.21-1.13.83-1.74a1.12,1.12,0,0,0-.37-.35c-1-.64-2.41-.1-3.42.58s-2,1.54-3.27,1.52a1,1,0,0,1,.4-1.38,1.62,1.62,0,0,0,.49-.25c.29-.3.08-.78-.12-1.13a7.35,7.35,0,0,1-.56-5.59l7.44.14c.06-.55.12-.89.72-1.06a75.57,75.57,0,0,1-5-6,1.57,1.57,0,0,0-.66-.64,5.28,5.28,0,0,0-1-.05c-1.07-.14-1.24-1.61-1.13-2.69-.16-.33-.68-.18-.88.12s-.25.69-.49,1a1.37,1.37,0,0,1-1.5.17,3.58,3.58,0,0,1-1.89-4.64,1.07,1.07,0,0,1,.4-.51c.43-.25.94.05,1.42.14,1.9.34,1.61-1.76,1.16-2.75-.62-1.35-2.47-2.21-3.81-2.56-1.57-.4-12-2.4-10.32-5.81a1.59,1.59,0,0,1,.81-.68,22.6,22.6,0,0,1,3.2-.61c1-.3,2.06-1.39,1.6-2.38-.18-.39-.56-.67-.77-1-.59-1.06.32-2.44-.1-3.58a9.64,9.64,0,0,0-.92-1.4c-.28-.48-.33-1.21.15-1.5s1.27.16,1.84-.1a1,1,0,0,0,0-1.62,1.69,1.69,0,0,0-1.85.13,2.2,2.2,0,0,1-.89.5c-.61.08-1.07-.53-1.38-1.06l-1.49-2.54a1.44,1.44,0,0,0-1.18,1.05c-.19.53-.23,1.11-.44,1.63-1.06,2.5-4.87,2.21-4.38,5.64a1.63,1.63,0,0,1,1.66,2c-.4,1.21-2.22,1.88-2,3.13.09.44.44.79.51,1.23.19,1.21-1.68,1.65-2.49,1.93-2.67.92-2.85-.84-5.16-.94-1.06,0-2,.67-3.06.78s-1.93-.3-2.91-.25c-2.67.16-1.33,3.79-1.14,5.36-1.44-1-3.36.16-4.5,1.45-1.76,2-1.59,1.63-3.92,1.72a1.7,1.7,0,0,0-1.51.89c-.43,1,.49,2,.52,3.1,0,.51-.19,1-.15,1.53.13,1.34,1.72,1.93,2.68,2.87a3.67,3.67,0,0,1,1,3.24,7.85,7.85,0,0,1-2-.15l-1.21-2.33a5,5,0,0,0-1.36-1.86,4.18,4.18,0,0,1-1-.78c-.5-.69-.09-1.65,0-2.5.29-2.07-.75-5.55-1.26-7.61s-2-3-2.52-5.06a.62.62,0,0,0-.91-.29,1.38,1.38,0,0,0-.57.9,3.74,3.74,0,0,0,.22,2.51c-.47-1-3,1.66-3.2,2.17-.26.83.3,2,.27,2.89-.05,2.15-.57,3.36-2.79,1.78-.85-.61-1.94-1.32-2.84-.8a1.34,1.34,0,0,1-.75,1.52,2.8,2.8,0,0,1-1.81.14,1.82,1.82,0,0,1-1.09-.53,3.51,3.51,0,0,0-.4-.53c-.57-.44-1.29.33-1.6,1"/><path class="cls-7" d="M285,129.58c.45.7,0,1.62-.54,2.28s-1.11,1.43-.89,2.24l2.9.26a.74.74,0,0,1,.5.19.69.69,0,0,1,.07.53c-.07.62-.15,1.24-.22,1.86-.61.47-1.2-1-2-.87-.33.06-.5.42-.69.71-1.56,2.46-4.3.62-5.76-.66-1.7-1.48-4.16-1.58-6.41-1.6a3.09,3.09,0,0,0-2.28.59c-.56.56-.59,1.45-.87,2.2-.49,1.29-1.73,2.14-2.44,3.34-2.46,4.17,2,7.37,5.73,6.24,1.95-.59,1.61-.93,3.6-.36.83.24,1.85,0,2.36,1a1.55,1.55,0,0,1-1.35,2.26,6.68,6.68,0,0,1-3.21-.37c.38,1.31,0,2.82-.14,4.22a1.84,1.84,0,0,0-2,2.46c.63,0,1.49.25,1.44.88a1.18,1.18,0,0,1-.22.5,22.48,22.48,0,0,0-1.39,1.86c-.59,1-.58,4.15-2.07,4.52-.26.07-.54.05-.8.13a1.2,1.2,0,0,0-.73,1.39,1.64,1.64,0,0,0,1.18,1.14c.37.1.77.09,1.13.22,1.92.67.23,2.57.69,3.51a17.32,17.32,0,0,0,3.84,2.55,4.51,4.51,0,0,0-2.17,3.41c0,1.57,1.15,2.33,2.63,2.79s3.48.65,4.61,1.09a1.93,1.93,0,0,0,1.86,0c.64-.5.5-1.69,1.24-2a2.16,2.16,0,0,1,.76-.12,2.88,2.88,0,0,0,2.45-3.23c.35-.46,1-.41,1.61-.4s1.3-.17,1.38-.74-.74-1-1.4-1a7.16,7.16,0,0,0-2,.16,2.47,2.47,0,0,1-1.47.06,1.93,1.93,0,0,1-.78-.82,4.41,4.41,0,0,1-.82-2.57,1.89,1.89,0,0,1,1.73-1.79,3.62,3.62,0,0,0,.73,0c.63-.1.9-.86.86-1.49a5.7,5.7,0,0,1-.08-1.88c.17-.61,1-1.06,1.44-.59.35-.81.58-2-.21-2.37a2.31,2.31,0,0,0-.83-.15c-1.74-.16-4.09-2.51-2.15-3.85,1.27-.88,3.32.95,4.43-.71.54-.8.21-2,.76-2.75.32-.24.7.24.77.63a3.7,3.7,0,0,1-1.21,3.42c1,.57,2.52-.08,3.19.84s-.32,2.47.55,3.18a1.72,1.72,0,0,0,.89.3c1.57.23,4.49,0,4.58,2.21a3.64,3.64,0,0,0,.05.81c.24.79,1.32.86,2.14.78.42-.81-.13-1.75-.5-2.58s-.33-2.12.55-2.32c.64-.15,1.38.39,1.91,0,.25-.17.36-.5.63-.65.65-.34,1.19.66,1.89.88,1,.3,1.69-1,1.69-2s-.25-2.16.4-2.92c.21-.24.49-.41.72-.64a4.16,4.16,0,0,0,.94-2.72c.16-1.56,6.33,2.48,6.72,2.55,3,.49,4.78-2.45,6.81-4.06a18.12,18.12,0,0,1,3.54-2,82,82,0,0,0-58.85-55,28,28,0,0,0-3.78-.73c.38,1.89,1.55,4.88.28,6.67-1.61,2.28-5,.28-6.27,2.95,0,.68,1.1.57,1.62,1a2.32,2.32,0,0,1,.51,1c.15.35.49.71.85.6.42.63-.24,1.4-.8,1.92a5,5,0,0,0-1.52,2.16c-.52,1.78.66,3.56,1.41,5.26a24.64,24.64,0,0,1,1.32,4.41c0-.71,1-1,1.65-.68a7.92,7.92,0,0,1,1.54,1.47c.87.84,2,.33,2.94,1,1.18.88,1.93,2.48,3.37,2.72,1.76.29,3-1.58,3.81-3.17,1.93,1,3.12,3.48,5.3,3.65a5.76,5.76,0,0,0,2.43-.56l4.79-1.89a3,3,0,0,1,2.06-.29,3,3,0,0,1,1.51,1.91c.34.84.69,1.67,1,2.51a1.9,1.9,0,0,1,.2,1.08,1.6,1.6,0,0,1-.77.87,8.65,8.65,0,0,1-6.21,1.27,35,35,0,0,0,1.7,8.52c-1.63-.42-3.51.12-5-.51"/><path class="cls-7" d="M266.44,195.58a3.23,3.23,0,0,1-2.45,1.26,17,17,0,0,1-1.73-.33,1.6,1.6,0,0,0-1.58.52c-.41.63,0,1.45.37,2.09a2.44,2.44,0,0,0,1.26,1.25c.43.12.89,0,1.33.08.87.14,1.43,1,2,1.62s1.52,1.27,2.29.84c.5-.29.72-.93,1.21-1.23,1.2-.76,2.67.88,3.75.26,1.28-.73.81-2.82.28-4a11,11,0,0,0-2.55-3C268,192.42,268.38,193.26,266.44,195.58Z"/><path class="cls-7" d="M307,229.27c12.78-12.67,20.26-31.14,21.73-48.9,0-.49.08-1,.11-1.48-2.46-2.54-7.38-4.16-8.66.41-.51,0-.61-.34-1-.62-.61-.45-1.46.16-1.8.83-1.11,2.21-1.27,5-4.33,4.39-3.65-.71-1.17-2.27-2.36-4.29a4.46,4.46,0,0,0-.72-.72c-.87-.88-.75-2.31-.58-3.54a1.41,1.41,0,0,0,1.92-.8,2.38,2.38,0,0,1,.28-.84c.42-.48,1.27,0,1.47.58s0,1.28.18,1.91.81,1.24,1.36.9a1.09,1.09,0,0,0,.43-.65,3.49,3.49,0,0,0-.63-3.17,1.4,1.4,0,0,0-.06-2.72c-.89-.2-2.16.33-2.52-.51A2,2,0,0,1,311,172c-2.36,1.72-7.66.19-7.14,5.21a18.18,18.18,0,0,1,.35,2.41,1.84,1.84,0,0,1-1.26,1.86c1.43,1.16.91,3.8,2.45,4.81a1.93,1.93,0,0,0,2.38-.25.86.86,0,0,1,.34-.26c.28-.09.54.17.83.23.49.11.93-.41,1.43-.43.71,0,1.1.81,1.23,1.5s.31,1.56,1,1.75c.23.07.48,0,.71.1a1.2,1.2,0,0,1,.78,1.13,3.54,3.54,0,0,1-.32,1.42c-.3.3-.82.12-1.11-.19a7.46,7.46,0,0,0-.78-1c-.19-.15-4.44.18-4.3-.13-.63,1.47-.95,4.67-3.15,3.85-.77-.29-1.57-.81-2.36-.57.38-1,.74-2.08,1.1-3.12-.33-.28-.82.11-1,.51s-.16.9-.5,1.16a1.36,1.36,0,0,1-.87.18l-2.94-.06c-1.06,0-2.29,0-2.95.86s-.32,2.4.48,3.3a1.1,1.1,0,0,1,.4.75,1.08,1.08,0,0,1-.42.64,4.42,4.42,0,0,0-1.45,3.73,2.87,2.87,0,0,0,2.87,2.45c.53,0,1.19-.22,1.5.21.18.25.18.66.46.79s.66-.29.92-.59a1.6,1.6,0,0,1,1.94-.31c.31.19,1.3,3.21,1,3.64-.59,1-3.37.61-4.46.66a1.6,1.6,0,0,0-1.17.38c-.43.5-.08,1.29.4,1.73s1.12.8,1.36,1.41a4.22,4.22,0,0,1-.6,3.27c-.28.24-.63.36-.91.59a2.25,2.25,0,0,0-.45,2.31c.22.79.64,1.53.8,2.34.32,1.73-.63,3.6.06,5.22.33.78,1.36,1.41,2,.86s.55-1.6,1.28-1.68,1.57,1.68,2.15,2,1.38-.18,2.23.44C306.1,227.64,306.24,228.73,307,229.27Z"/><path class="cls-7" d="M198.42,121c.72-.91,1.18-2,2.53-2.2,1.84-.32,2.53.71,1.73,2.45a.75.75,0,0,0-.11.5c.12.53.92.22,1.37-.09a3.66,3.66,0,0,1,3.53-.17c.27.12.77-4.93.5-5.51-.92-2-5.17-1.07-4.3-3.28,1.6,0,3.23.18,4.82.29l.27-2.3c-.07.57,2.9.45,3.24.28,1.31-.66.95-3,3.3-2.66,3,.49,3.14,6.33-.24,5.38a15.18,15.18,0,0,0-1.2,5.66l-1.84,0a1.65,1.65,0,0,0-.22,1.48,4.6,4.6,0,0,0,5.07,0c1,.74,2.33,0,3.32-.67,1.39,2.23,5.38,1.92,6.4-.5s-1.52-5.51-4.1-5a5.87,5.87,0,0,0-1.25-3.39,7.69,7.69,0,0,0,7.34-5.09c.52-1.52.64-3.37,1.92-4.33.57-.44,1.29-.61,1.89-1,1.33-.9,1.72-2.65,1.93-4.24q.21-1.61.3-3.21a81.34,81.34,0,0,0-48.18,26.79,3.2,3.2,0,0,0,.12,1.66,3.57,3.57,0,0,0,2.55,1.58c3.9,1,6.39.8,9.09-2.23Z"/><g class="cls-8"><path class="cls-9" d="M186.82,193.5c-.27,1.51-2.19,2.05-3.74,2.25l-7,.86c-1.1-2.88-4.52-2.91-6.92-1.78A81.32,81.32,0,0,0,241,254.69q4,.33,8,.27a1.37,1.37,0,0,0,.13-.2c1.22-2.13-.54-4-1.48-5.76-.21-.4-2.21-5.43-1.55-5.45a21.22,21.22,0,0,1-6.33-.82.62.62,0,0,1-.4-.24c-.2-.33.27-.66.64-.74,1-.23,1.95-.28,2.89-.56a3.34,3.34,0,0,0,2.24-1.77c.37-.92.09-2,.3-2.93a4.05,4.05,0,0,1,2.31-2.63,13,13,0,0,1,3.35-.89c-2.45-1.34-.66-4.13-2.59-6-.62-.6-1.52-1.33-1.14-2.1s1.66-.72,1.82-1.53c.11-.56-.48-1-1-1.15a6.29,6.29,0,0,1-1.67-.35,1.5,1.5,0,0,1-.47-2.09c.42-.59,1.2-.77,1.84-1.11s1.21-1.13.83-1.74a1.12,1.12,0,0,0-.37-.35c-1-.64-2.41-.1-3.42.58s-2,1.54-3.27,1.52a1,1,0,0,1,.4-1.38,1.62,1.62,0,0,0,.49-.25c.29-.3.08-.78-.12-1.13a7.35,7.35,0,0,1-.56-5.59l7.44.14c.06-.55.12-.89.72-1.06a75.57,75.57,0,0,1-5-6,1.57,1.57,0,0,0-.66-.64,5.28,5.28,0,0,0-1-.05c-1.07-.14-1.24-1.61-1.13-2.69-.16-.33-.68-.18-.88.12s-.25.69-.49,1a1.37,1.37,0,0,1-1.5.17,3.58,3.58,0,0,1-1.89-4.64,1.07,1.07,0,0,1,.4-.51c.43-.25.94.05,1.42.14,1.9.34,1.61-1.76,1.16-2.75-.62-1.35-2.47-2.21-3.81-2.56-1.57-.4-12-2.4-10.32-5.81a1.59,1.59,0,0,1,.81-.68,22.6,22.6,0,0,1,3.2-.61c1-.3,2.06-1.39,1.6-2.38-.18-.39-.56-.67-.77-1-.59-1.06.32-2.44-.1-3.58a9.64,9.64,0,0,0-.92-1.4c-.28-.48-.33-1.21.15-1.5s1.27.16,1.84-.1a1,1,0,0,0,0-1.62,1.69,1.69,0,0,0-1.85.13,2.2,2.2,0,0,1-.89.5c-.61.08-1.07-.53-1.38-1.06l-1.49-2.54a1.44,1.44,0,0,0-1.18,1.05c-.19.53-.23,1.11-.44,1.63-1.06,2.5-4.87,2.21-4.38,5.64a1.63,1.63,0,0,1,1.66,2c-.4,1.21-2.22,1.88-2,3.13.09.44.44.79.51,1.23.19,1.21-1.68,1.65-2.49,1.93-2.67.92-2.85-.84-5.16-.94-1.06,0-2,.67-3.06.78s-1.93-.3-2.91-.25c-2.67.16-1.33,3.79-1.14,5.36-1.44-1-3.36.16-4.5,1.45-1.76,2-1.59,1.63-3.92,1.72a1.7,1.7,0,0,0-1.51.89c-.43,1,.49,2,.52,3.1,0,.51-.19,1-.15,1.53.13,1.34,1.72,1.93,2.68,2.87a3.67,3.67,0,0,1,1,3.24,7.85,7.85,0,0,1-2-.15l-1.21-2.33a5,5,0,0,0-1.36-1.86,4.18,4.18,0,0,1-1-.78c-.5-.69-.09-1.65,0-2.5.29-2.07-.75-5.55-1.26-7.61s-2-3-2.52-5.06a.62.62,0,0,0-.91-.29,1.38,1.38,0,0,0-.57.9,3.74,3.74,0,0,0,.22,2.51c-.47-1-3,1.66-3.2,2.17-.26.83.3,2,.27,2.89-.05,2.15-.57,3.36-2.79,1.78-.85-.61-1.94-1.32-2.84-.8a1.34,1.34,0,0,1-.75,1.52,2.8,2.8,0,0,1-1.81.14,1.82,1.82,0,0,1-1.09-.53,3.51,3.51,0,0,0-.4-.53c-.57-.44-1.29.33-1.6,1"/><path class="cls-9" d="M285,129.58c.45.7,0,1.62-.54,2.28s-1.11,1.43-.89,2.24l2.9.26a.74.74,0,0,1,.5.19.69.69,0,0,1,.07.53c-.07.62-.15,1.24-.22,1.86-.61.47-1.2-1-2-.87-.33.06-.5.42-.69.71-1.56,2.46-4.3.62-5.76-.66-1.7-1.48-4.16-1.58-6.41-1.6a3.09,3.09,0,0,0-2.28.59c-.56.56-.59,1.45-.87,2.2-.49,1.29-1.73,2.14-2.44,3.34-2.46,4.17,2,7.37,5.73,6.24,1.95-.59,1.61-.93,3.6-.36.83.24,1.85,0,2.36,1a1.55,1.55,0,0,1-1.35,2.26,6.68,6.68,0,0,1-3.21-.37c.38,1.31,0,2.82-.14,4.22a1.84,1.84,0,0,0-2,2.46c.63,0,1.49.25,1.44.88a1.18,1.18,0,0,1-.22.5,22.48,22.48,0,0,0-1.39,1.86c-.59,1-.58,4.15-2.07,4.52-.26.07-.54.05-.8.13a1.2,1.2,0,0,0-.73,1.39,1.64,1.64,0,0,0,1.18,1.14c.37.1.77.09,1.13.22,1.92.67.23,2.57.69,3.51a17.32,17.32,0,0,0,3.84,2.55,4.51,4.51,0,0,0-2.17,3.41c0,1.57,1.15,2.33,2.63,2.79s3.48.65,4.61,1.09a1.93,1.93,0,0,0,1.86,0c.64-.5.5-1.69,1.24-2a2.16,2.16,0,0,1,.76-.12,2.88,2.88,0,0,0,2.45-3.23c.35-.46,1-.41,1.61-.4s1.3-.17,1.38-.74-.74-1-1.4-1a7.16,7.16,0,0,0-2,.16,2.47,2.47,0,0,1-1.47.06,1.93,1.93,0,0,1-.78-.82,4.41,4.41,0,0,1-.82-2.57,1.89,1.89,0,0,1,1.73-1.79,3.62,3.62,0,0,0,.73,0c.63-.1.9-.86.86-1.49a5.7,5.7,0,0,1-.08-1.88c.17-.61,1-1.06,1.44-.59.35-.81.58-2-.21-2.37a2.31,2.31,0,0,0-.83-.15c-1.74-.16-4.09-2.51-2.15-3.85,1.27-.88,3.32.95,4.43-.71.54-.8.21-2,.76-2.75.32-.24.7.24.77.63a3.7,3.7,0,0,1-1.21,3.42c1,.57,2.52-.08,3.19.84s-.32,2.47.55,3.18a1.72,1.72,0,0,0,.89.3c1.57.23,4.49,0,4.58,2.21a3.64,3.64,0,0,0,.05.81c.24.79,1.32.86,2.14.78.42-.81-.13-1.75-.5-2.58s-.33-2.12.55-2.32c.64-.15,1.38.39,1.91,0,.25-.17.36-.5.63-.65.65-.34,1.19.66,1.89.88,1,.3,1.69-1,1.69-2s-.25-2.16.4-2.92c.21-.24.49-.41.72-.64a4.16,4.16,0,0,0,.94-2.72c.16-1.56,6.33,2.48,6.72,2.55,3,.49,4.78-2.45,6.81-4.06a18.12,18.12,0,0,1,3.54-2,82,82,0,0,0-58.85-55,28,28,0,0,0-3.78-.73c.38,1.89,1.55,4.88.28,6.67-1.61,2.28-5,.28-6.27,2.95,0,.68,1.1.57,1.62,1a2.32,2.32,0,0,1,.51,1c.15.35.49.71.85.6.42.63-.24,1.4-.8,1.92a5,5,0,0,0-1.52,2.16c-.52,1.78.66,3.56,1.41,5.26a24.64,24.64,0,0,1,1.32,4.41c0-.71,1-1,1.65-.68a7.92,7.92,0,0,1,1.54,1.47c.87.84,2,.33,2.94,1,1.18.88,1.93,2.48,3.37,2.72,1.76.29,3-1.58,3.81-3.17,1.93,1,3.12,3.48,5.3,3.65a5.76,5.76,0,0,0,2.43-.56l4.79-1.89a3,3,0,0,1,2.06-.29,3,3,0,0,1,1.51,1.91c.34.84.69,1.67,1,2.51a1.9,1.9,0,0,1,.2,1.08,1.6,1.6,0,0,1-.77.87,8.65,8.65,0,0,1-6.21,1.27,35,35,0,0,0,1.7,8.52c-1.63-.42-3.51.12-5-.51"/><path class="cls-9" d="M266.44,195.58a3.23,3.23,0,0,1-2.45,1.26,17,17,0,0,1-1.73-.33,1.6,1.6,0,0,0-1.58.52c-.41.63,0,1.45.37,2.09a2.44,2.44,0,0,0,1.26,1.25c.43.12.89,0,1.33.08.87.14,1.43,1,2,1.62s1.52,1.27,2.29.84c.5-.29.72-.93,1.21-1.23,1.2-.76,2.67.88,3.75.26,1.28-.73.81-2.82.28-4a11,11,0,0,0-2.55-3C268,192.42,268.38,193.26,266.44,195.58Z"/><path class="cls-9" d="M307,229.27c12.78-12.67,20.26-31.14,21.73-48.9,0-.49.08-1,.11-1.48-2.46-2.54-7.38-4.16-8.66.41-.51,0-.61-.34-1-.62-.61-.45-1.46.16-1.8.83-1.11,2.21-1.27,5-4.33,4.39-3.65-.71-1.17-2.27-2.36-4.29a4.46,4.46,0,0,0-.72-.72c-.87-.88-.75-2.31-.58-3.54a1.41,1.41,0,0,0,1.92-.8,2.38,2.38,0,0,1,.28-.84c.42-.48,1.27,0,1.47.58s0,1.28.18,1.91.81,1.24,1.36.9a1.09,1.09,0,0,0,.43-.65,3.49,3.49,0,0,0-.63-3.17,1.4,1.4,0,0,0-.06-2.72c-.89-.2-2.16.33-2.52-.51A2,2,0,0,1,311,172c-2.36,1.72-7.66.19-7.14,5.21a18.18,18.18,0,0,1,.35,2.41,1.84,1.84,0,0,1-1.26,1.86c1.43,1.16.91,3.8,2.45,4.81a1.93,1.93,0,0,0,2.38-.25.86.86,0,0,1,.34-.26c.28-.09.54.17.83.23.49.11.93-.41,1.43-.43.71,0,1.1.81,1.23,1.5s.31,1.56,1,1.75c.23.07.48,0,.71.1a1.2,1.2,0,0,1,.78,1.13,3.54,3.54,0,0,1-.32,1.42c-.3.3-.82.12-1.11-.19a7.46,7.46,0,0,0-.78-1c-.19-.15-4.44.18-4.3-.13-.63,1.47-.95,4.67-3.15,3.85-.77-.29-1.57-.81-2.36-.57.38-1,.74-2.08,1.1-3.12-.33-.28-.82.11-1,.51s-.16.9-.5,1.16a1.36,1.36,0,0,1-.87.18l-2.94-.06c-1.06,0-2.29,0-2.95.86s-.32,2.4.48,3.3a1.1,1.1,0,0,1,.4.75,1.08,1.08,0,0,1-.42.64,4.42,4.42,0,0,0-1.45,3.73,2.87,2.87,0,0,0,2.87,2.45c.53,0,1.19-.22,1.5.21.18.25.18.66.46.79s.66-.29.92-.59a1.6,1.6,0,0,1,1.94-.31c.31.19,1.3,3.21,1,3.64-.59,1-3.37.61-4.46.66a1.6,1.6,0,0,0-1.17.38c-.43.5-.08,1.29.4,1.73s1.12.8,1.36,1.41a4.22,4.22,0,0,1-.6,3.27c-.28.24-.63.36-.91.59a2.25,2.25,0,0,0-.45,2.31c.22.79.64,1.53.8,2.34.32,1.73-.63,3.6.06,5.22.33.78,1.36,1.41,2,.86s.55-1.6,1.28-1.68,1.57,1.68,2.15,2,1.38-.18,2.23.44C306.1,227.64,306.24,228.73,307,229.27Z"/><path class="cls-9" d="M198.42,121c.72-.91,1.18-2,2.53-2.2,1.84-.32,2.53.71,1.73,2.45a.75.75,0,0,0-.11.5c.12.53.92.22,1.37-.09a3.66,3.66,0,0,1,3.53-.17c.27.12.77-4.93.5-5.51-.92-2-5.17-1.07-4.3-3.28,1.6,0,3.23.18,4.82.29l.27-2.3c-.07.57,2.9.45,3.24.28,1.31-.66.95-3,3.3-2.66,3,.49,3.14,6.33-.24,5.38a15.18,15.18,0,0,0-1.2,5.66l-1.84,0a1.65,1.65,0,0,0-.22,1.48,4.6,4.6,0,0,0,5.07,0c1,.74,2.33,0,3.32-.67,1.39,2.23,5.38,1.92,6.4-.5s-1.52-5.51-4.1-5a5.87,5.87,0,0,0-1.25-3.39,7.69,7.69,0,0,0,7.34-5.09c.52-1.52.64-3.37,1.92-4.33.57-.44,1.29-.61,1.89-1,1.33-.9,1.72-2.65,1.93-4.24q.21-1.61.3-3.21a81.34,81.34,0,0,0-48.18,26.79,3.2,3.2,0,0,0,.12,1.66,3.57,3.57,0,0,0,2.55,1.58c3.9,1,6.39.8,9.09-2.23Z"/></g></g><g id="People"><path class="cls-4" d="M50.23,88.84a11.89,11.89,0,0,0,6,10.32,11.9,11.9,0,0,0,13.28-.94,11.91,11.91,0,1,0-19.25-9.38Z"/><circle class="cls-10" cx="62.14" cy="88.84" r="11.23" transform="translate(-13.43 11.1) rotate(-9.22)"/><path class="cls-4" d="M55.47,88.66a1.82,1.82,0,0,0,1.38,1.66,2.53,2.53,0,0,0,0,1.66c.33.92,2.17.92,2.17.92a.93.93,0,0,0,.83.56l.12.14c.08.12.17.25.26.36.23,1.81.19,3.72-.7,4.69a0,0,0,0,1,0,0c-.77.08-1.54.18-2.31.31-.37,0-.73.11-1.09.18a11.9,11.9,0,0,0,13.28-.94H68.34l-2.09,0s0,0,0,0a2.43,2.43,0,0,1-2.16-1.58,3.58,3.58,0,0,1-.15-1.24,4,4,0,0,0,1-.32,4.09,4.09,0,0,0,2-2.22,3,3,0,0,0,.14-.42,10.39,10.39,0,0,0,.26-3.54,1.7,1.7,0,0,0,.81-1.15,1.21,1.21,0,0,0-.84-1.49,1.6,1.6,0,0,0,1.22-1.67,1.27,1.27,0,0,0-1.22-1.48s.43-.63-.41-1.79a1.5,1.5,0,0,0-2-.45,2.35,2.35,0,0,0-2.34-1.06A2.55,2.55,0,0,0,60.72,81s0-.85-1.65-.38A2.24,2.24,0,0,0,57.62,83a1.21,1.21,0,0,0-1.68.62c-.57,1.19.67,3.28.67,3.28A1.62,1.62,0,0,0,55.47,88.66Z"/><path class="cls-11" d="M50.23,88.84a11.89,11.89,0,0,0,6,10.32,11.9,11.9,0,0,0,13.28-.94,11.91,11.91,0,1,0-19.25-9.38Z"/><circle class="cls-4" cx="56.11" cy="298.03" r="10.59"/><path class="cls-10" d="M66.1,298a10,10,0,1,1-10-10A9.89,9.89,0,0,1,66.1,298Z"/><path class="cls-4" d="M64,304.15a10,10,0,0,1-13.51,2.13c.33-.76.54-1.21.54-1.21a29.69,29.69,0,0,1,3.8-.94,3.1,3.1,0,0,1,1.31-.65,3.84,3.84,0,0,0-.07-2.27,4,4,0,0,1-1-1,2.76,2.76,0,0,1-.54-.54c-.31-.12-2.43-1.11-2.54-4.59a3.05,3.05,0,0,1,0-.43c-.66-.06-1.35.14-.87,1.48.82,2.31,0,3.52,0,3.52a8.52,8.52,0,0,0-.08-1.52c0,2.38-1.29,2.54-1.29,2.54s.82-.86-.39-3.52-.86-6.25,1.45-6.41a3.05,3.05,0,0,1,2.55,1.07,3.85,3.85,0,0,1,4.52-.52s2.07-.51,2.66,0c.12.11,0,.39-.22.75a2.71,2.71,0,0,1,1.16,1.71,4.12,4.12,0,0,1-.57,3.24c.28,2.63-.17,4.59-2.26,4.78,0,.06,0,.13,0,.19s0,.19,0,.27a3,3,0,0,0,.15,1.12,5.84,5.84,0,0,1,.87.24c1.87,0,4,.19,4,.19l0,0A2.22,2.22,0,0,1,64,304.15Z"/><circle class="cls-11" cx="56.11" cy="298.03" r="10.59"/><circle class="cls-4" cx="443.89" cy="215.32" r="11.69" transform="translate(-22.24 376.94) rotate(-45)"/><path class="cls-10" d="M454.91,215.32a11,11,0,0,1-22,0,11,11,0,0,1,22,0Z"/><path class="cls-4" d="M453.06,221.42A11,11,0,0,1,437.14,224a6.55,6.55,0,0,1,.06-1.81c.14-1.35,1.69-2.43,1.67-3.38s-1.6-2.16-.59-2.7,1.23-2.64.42-3.82a2.57,2.57,0,0,1,.06-3.58,4.67,4.67,0,0,1,3-1.63,5.45,5.45,0,0,1,3.26-.47,6.81,6.81,0,0,1,3.24,1.1,4.8,4.8,0,0,1,1.69,2.08,6.55,6.55,0,0,1,.34,4.77c-.55,1.57,1.9,1.48,2,2.93s-1.15,1.53-.93,2.49C451.43,220.46,452.28,220.88,453.06,221.42Z"/><circle class="cls-11" cx="443.89" cy="215.32" r="11.69" transform="translate(-22.24 376.94) rotate(-45)"/><rect class="cls-4" x="300.29" y="118.03" width="97.22" height="1" transform="translate(-18.36 148.56) rotate(-23.44)"/><rect class="cls-4" x="199.61" y="42.4" width="1" height="72.46" transform="translate(-11.43 117.1) rotate(-31.76)"/><rect class="cls-4" x="93.46" y="221.95" width="101.09" height="1" transform="translate(-42.55 34.26) rotate(-11.83)"/><rect class="cls-12" x="300.29" y="118.03" width="97.22" height="1" transform="translate(-18.36 148.56) rotate(-23.44)"/><rect class="cls-4" x="343.69" y="187.84" width="1" height="107.23" transform="translate(-75.68 219.58) rotate(-32.07)"/><rect class="cls-12" x="343.69" y="187.84" width="1" height="107.23" transform="translate(-75.68 219.58) rotate(-32.07)"/><rect class="cls-12" x="199.61" y="42.4" width="1" height="72.46" transform="translate(-11.43 117.1) rotate(-31.76)"/><rect class="cls-12" x="93.46" y="221.95" width="101.09" height="1" transform="translate(-42.55 34.26) rotate(-11.83)"/><path class="cls-4" d="M190.88,324.05,94,233l13.7-103.59.11-.11,73-81.92.19,0L313.25,29,394,99l0,.26L373.12,287.31l-.36.07ZM95.06,232.6,191.19,323l181-36.5L393,99.39l-80-69.3L181.3,48.3l-72.65,81.53Z"/><path class="cls-12" d="M190.88,324.05,94,233l13.7-103.59.11-.11,73-81.92.19,0L313.25,29,394,99l0,.26L373.12,287.31l-.36.07ZM95.06,232.6,191.19,323l181-36.5L393,99.39l-80-69.3L181.3,48.3l-72.65,81.53Z"/><polygon class="cls-4" points="220.68 109.44 219.18 118.19 217.68 109.44 220.68 109.44"/><path class="cls-4" d="M223.52,109.44a4.34,4.34,0,1,1-4.34-4.35A4.34,4.34,0,0,1,223.52,109.44Z"/><path class="cls-10" d="M219.61,106.38c.48.63.1,1.73-.86,2.46s-2.11.8-2.6.17-.1-1.74.85-2.47S219.12,105.74,219.61,106.38Z"/><polygon class="cls-4" points="305.8 137.87 304.3 146.62 302.8 137.87 305.8 137.87"/><circle class="cls-4" cx="304.3" cy="137.87" r="4.34"/><path class="cls-10" d="M304.72,134.8c.49.64.1,1.74-.85,2.47s-2.12.8-2.6.16-.1-1.73.85-2.46S304.24,134.17,304.72,134.8Z"/><polygon class="cls-4" points="194.98 211.58 193.48 220.33 191.98 211.58 194.98 211.58"/><circle class="cls-4" cx="193.48" cy="211.58" r="4.34"/><path class="cls-10" d="M193.91,208.52c.48.63.1,1.73-.85,2.46s-2.12.8-2.61.17-.1-1.74.86-2.47S193.42,207.88,193.91,208.52Z"/><polygon class="cls-4" points="317.23 196.02 315.73 204.78 314.23 196.02 317.23 196.02"/><path class="cls-4" d="M320.07,196a4.34,4.34,0,1,1-4.34-4.34A4.34,4.34,0,0,1,320.07,196Z"/><path class="cls-10" d="M316.15,193c.49.63.11,1.74-.85,2.46s-2.12.81-2.6.17-.1-1.74.85-2.46S315.67,192.33,316.15,193Z"/><path class="cls-4" d="M427.08,101.27a33.27,33.27,0,0,1-6.65,20,32.36,32.36,0,0,1-5.08,5.38,31.39,31.39,0,0,1-5.5,3.82A33.3,33.3,0,0,1,380,131.62c-.39-.17-.78-.36-1.16-.56h0a32,32,0,0,1-6.54-4.3,33.36,33.36,0,0,1-11.85-25.48,33.34,33.34,0,1,1,66.68,0Z"/><circle class="cls-11" cx="393.74" cy="101.27" r="32.37" transform="translate(43.71 308.08) rotate(-45)"/><path class="cls-13" d="M372.25,116.4l3.13-13s2-1.58,2.1-2.73-1.22-8-2.08-8.36-5.94,1.36-6.18,2.81,1.75,7.16,2.15,7.63l-5.13,15.09Z"/><path class="cls-4" d="M374.76,109,372.88,126a32,32,0,0,1-7.24-8.68c1.16-4.09,2.33-7.76,2.88-9.41.18-.58.29-.91.29-.91l1.08.13,4.45.56.55.08Z"/><path class="cls-4" d="M383.26,119.94l-2.9,10.79a11.53,11.53,0,0,1-1.12-.54h0a31.15,31.15,0,0,1-6.34-4.17c.23-.53,6.17-13.94,8.39-13.78Z"/><path class="cls-14" d="M374.76,109,372.88,126a32,32,0,0,1-7.24-8.68c1.16-4.09,2.33-7.76,2.88-9.41.18-.58.29-.91.29-.91l1.08.13,4.45.56.55.08Z"/><path class="cls-14" d="M383.26,119.94l-2.9,10.79a11.53,11.53,0,0,1-1.12-.54h0a31.15,31.15,0,0,1-6.34-4.17c.23-.53,6.17-13.94,8.39-13.78Z"/><polygon class="cls-4" points="376.15 106.72 375.13 109.02 368.03 107.84 368.19 106.53 376.15 106.72"/><path class="cls-15" d="M413.44,90.14c-.83,3.17,3.7,11.92,1.86,27.84s-19.29,15-27.14,9.64-6.49-34.1-3.79-39.78S413.44,90.14,413.44,90.14Z"/><path class="cls-4" d="M418.05,115.88c-.17.46-.31.92-.47,1.38s-.32.9-.47,1.34c-.29.88-.57,1.73-.85,2.56-.56,1.66-1.06,3.25-1.54,4.74a31,31,0,0,1-5.34,3.71,32.3,32.3,0,0,1-29,1.12,11.53,11.53,0,0,1-1.12-.54c0-.31,0-.64,0-.95s0-.62,0-.92c0-.92.05-1.77.07-2.58,0-.54.05-1.06.06-1.55,0-.26,0-.49,0-.73.05-.89.09-1.7.15-2.45,0-.25,0-.49.05-.72,0-.71.11-1.35.15-1.93.37-3.7.86-5.16,1.18-5.75a1.3,1.3,0,0,1,.17-.26c.09-.11.14-.12.14-.12l1.31-.11c2.16-.18,6.64-.5,10.69-.47h.23c.54,0,1.07,0,1.61.07,2.09.11,4.18.29,6.24.55l2.3.32c.83.12,1.66.25,2.49.4l.35.06a83.24,83.24,0,0,1,9.07,2.08c.83.23,1.66.47,2.48.74Z"/><path class="cls-14" d="M418,115.88s0,0,0,0c-.16.46-.32.91-.45,1.36s-.32.9-.47,1.34c-.29.88-.57,1.73-.85,2.56-.56,1.66-1.06,3.25-1.54,4.74a31,31,0,0,1-5.34,3.71,32.3,32.3,0,0,1-29,1.12,11.53,11.53,0,0,1-1.12-.54h0c0-.31,0-.63,0-.94s0-.62,0-.92c0-.92.05-1.77.07-2.58,0-.54.05-1.06.06-1.55,0-.26,0-.49,0-.73,0-.89.09-1.7.15-2.45,0-.25,0-.49.05-.72,0-.71.11-1.35.15-1.93.37-3.7.86-5.16,1.18-5.75a1.3,1.3,0,0,1,.17-.26c.09-.11.14-.12.14-.12l1.31-.11c2.16-.18,6.64-.5,10.69-.47h.23c.54,0,1.07,0,1.61.07,2.09.11,4.18.29,6.24.55l2.3.32c.83.12,1.66.25,2.49.4l.35.06a83.24,83.24,0,0,1,9.07,2.08C416.39,115.37,417.22,115.61,418,115.88Z"/><path class="cls-6" d="M399.32,110.78c7.14.56,8,2.72,7.26,3.85s-10.44,10.59-13.35,16.93C393.23,131.56,382.74,109.48,399.32,110.78Z"/><path class="cls-13" d="M395.63,118c7.07-.9,9.2-3.92,9.2-3.92-4.49-4.24-.76-11.57-.76-11.57l-8.51,1.59a25.08,25.08,0,0,1,.33,3.58c.07,5.17-2.27,5.22-2.27,5.22C392.13,115.67,395.63,118,395.63,118Z"/><path class="cls-16" d="M395.56,104.08a25.08,25.08,0,0,1,.33,3.58c5.75,0,8.18-5.17,8.18-5.17Z"/><path class="cls-13" d="M400.26,80.29c-7.39-.41-10,3.42-10.95,11-1.2,9.48.54,16.37,9.9,14.84C411.92,104.07,412.55,81,400.26,80.29Z"/><path class="cls-17" d="M394.11,91.15a15.5,15.5,0,0,1-2.32,2.95,2.06,2.06,0,0,0,1.91,1Z"/><path class="cls-15" d="M398.67,90.8c0,.6.25,1.12.65,1.15s.77-.43.82-1-.24-1.12-.65-1.15S398.72,90.19,398.67,90.8Z"/><path class="cls-15" d="M399.66,89.8l-1.28-.62S399,90.34,399.66,89.8Z"/><path class="cls-15" d="M391.14,90.08c-.05.61.24,1.12.65,1.16s.77-.44.82-1-.25-1.13-.65-1.16S391.19,89.47,391.14,90.08Z"/><path class="cls-15" d="M392.13,89.08l-1.28-.62S391.42,89.62,392.13,89.08Z"/><path class="cls-15" d="M402.18,87.33a.34.34,0,0,1-.28-.14A3.49,3.49,0,0,0,399.05,86a.35.35,0,0,1-.05-.69,4.18,4.18,0,0,1,3.45,1.44.35.35,0,0,1-.07.48A.36.36,0,0,1,402.18,87.33Z"/><path class="cls-15" d="M390.69,85.88a.34.34,0,0,1-.18-.64,3.82,3.82,0,0,1,3.3-.47.34.34,0,0,1,.17.45.32.32,0,0,1-.44.18,3.16,3.16,0,0,0-2.68.43A.34.34,0,0,1,390.69,85.88Z"/><path class="cls-15" d="M394.62,98a18.24,18.24,0,0,1,.72,2.61,3.85,3.85,0,0,0,.48,0c2.16-.1,3.13-.86,3.55-1.67a2.81,2.81,0,0,0,.29-1.29,2.68,2.68,0,0,0-.1-.75A10.41,10.41,0,0,1,395.35,98Z"/><path class="cls-6" d="M395.35,98l.24.77c2-.1,3.46-.45,4.07-1.09a2.68,2.68,0,0,0-.1-.75A10.41,10.41,0,0,1,395.35,98Z"/><path class="cls-17" d="M395.82,100.61c2.16-.1,3.13-.86,3.55-1.67a6.93,6.93,0,0,0-2.38.59A2.59,2.59,0,0,0,395.82,100.61Z"/><path class="cls-15" d="M407.66,93.2s-3.12-6.27-2.34-10.93c0,0-14.33-6.79-15.87,8,0,0-.71-13.29,12-12.89s11.66,19,4.79,24.18C406.26,101.61,409.6,97.12,407.66,93.2Z"/><path class="cls-13" d="M406.37,94.69A3.25,3.25,0,0,1,410,91.92c2.27.37,3.11,5.14-2.65,6C406.55,98,406.13,97.17,406.37,94.69Z"/><path class="cls-15" d="M403.35,81.53a28.05,28.05,0,0,0,4.31,17.41c4.16,6.28-.62,11.79-.62,11.79s7.39-4.7,7.65-11.79c0,0,6.1-17-6.57-21.52,0,0-.05-3.82-8.31-3.09s-14.91,7.8-16.17,16.82,3.44,19.09,3.44,19.09S382.08,78.27,403.35,81.53Z"/><path class="cls-15" d="M403.83,81.68a21,21,0,0,0-.62,6.56,32.19,32.19,0,0,0,1.06,6.61,27.43,27.43,0,0,0,2.48,6.25,18.1,18.1,0,0,0,4.18,5.26,18.09,18.09,0,0,1-4.4-5.13A28.44,28.44,0,0,1,403.79,95a33.69,33.69,0,0,1-1.33-6.7,22.12,22.12,0,0,1,.41-6.91Z"/><path class="cls-4" d="M419.65,120.68a31.66,31.66,0,0,1-4.93,5.22,31,31,0,0,1-5.34,3.71c.11-.43.25-.86.4-1.28a33,33,0,0,1,5.33-9.14A37.5,37.5,0,0,1,418,115.9l0,0C418.82,116.51,419.32,118.26,419.65,120.68Z"/><path class="cls-14" d="M419.65,120.68a31.66,31.66,0,0,1-4.93,5.22,31,31,0,0,1-5.34,3.71c.11-.43.25-.86.4-1.28a33,33,0,0,1,5.33-9.14A37.5,37.5,0,0,1,418,115.9l0,0C418.82,116.51,419.32,118.26,419.65,120.68Z"/><circle class="cls-4" cx="312.1" cy="31.57" r="18.2"/><path class="cls-10" d="M329.25,31.57A17.16,17.16,0,1,1,312.1,14.41,17.1,17.1,0,0,1,329.25,31.57Z"/><path class="cls-4" d="M324.67,43.24a17.17,17.17,0,0,1-25.8-.74,1.31,1.31,0,0,1,.28-.09,3.68,3.68,0,0,1,.82-.86.66.66,0,0,1,0-.14l.3-.06a3.63,3.63,0,0,1,1.88-.49l.55,0,1.07-.19s0,.1,0,.29c1.36.11,3.43.23,5.78.39a3,3,0,0,0,1.06-1.5,5.14,5.14,0,0,0,.21-2,6,6,0,0,1-2.4-.64,6.18,6.18,0,0,1-3-3.37,6.32,6.32,0,0,1-.18-.62,15.45,15.45,0,0,1-.09-6.48H305a.18.18,0,0,1-.15-.19s0,0,0-.05a.2.2,0,0,1,.23-.16h.05a13.09,13.09,0,0,1,.29-3.88,4.57,4.57,0,0,1,0-3.91c.64-.92.14-.43,1.82-.57s.67-1.64,1.74-1.65.85.65,2.16,1.15.83-1,2.33-1.14,1.7,1,2.77,1.29a5.29,5.29,0,0,0,2.07,0c.78,0,.85,2.27,1.18,2.7s.89-.22,1.6.95a1.08,1.08,0,0,1,.12.56c0,1.51-1.88,4.39-1.88,4.39a21.43,21.43,0,0,1-.39,2.12,2,2,0,0,1,.34,2.27,4.29,4.29,0,0,1-1.66,1.77,12.11,12.11,0,0,1-1.08,1.88c-.47,2.62-.7,5.72.19,7.67A58.15,58.15,0,0,1,324.67,43.24Z"/><circle class="cls-18" cx="312.1" cy="31.57" r="18.2"/><circle class="cls-4" cx="191.03" cy="321.92" r="18.2" transform="translate(-171.68 229.37) rotate(-45)"/><path class="cls-19" d="M208.19,321.92A17.16,17.16,0,1,1,191,304.76,17,17,0,0,1,208.19,321.92Z"/><path class="cls-4" d="M202.82,334.37a17.15,17.15,0,0,1-21.5,1.69c1.25-.17,2.56-.33,3.89-.46,1-2.25.77-5.83.22-8.85a15.11,15.11,0,0,1-1.23-2.18,4.81,4.81,0,0,1-1.92-2.05,2.27,2.27,0,0,1,.38-2.62,19.94,19.94,0,0,1-.55-4.12l-.08,0s-1.38-5.33,3.78-7.28,10.37,1.53,10.37,1.53,1.12-2.08,2.45-1.53c1.14.46.53,1.93.32,2.39a2.71,2.71,0,0,1,1.17-1c.91-.42,2.17.75-.66,3.57a4,4,0,0,1-1,.73,13.67,13.67,0,0,1,.08,3.86,17.83,17.83,0,0,1-.11,7.48,4.91,4.91,0,0,1-.22.71,7,7,0,0,1-3.42,3.9,6.88,6.88,0,0,1-2.77.74,6.5,6.5,0,0,0,.23,2.27,3.59,3.59,0,0,0,1.23,1.74c2.73-.19,5.11-.32,6.68-.45a2.82,2.82,0,0,0,0-.34l1.24.22A5.38,5.38,0,0,1,202.82,334.37Z"/><circle class="cls-18" cx="191.03" cy="321.92" r="18.2" transform="translate(-171.68 229.37) rotate(-45)"/><circle class="cls-4" cx="108.18" cy="129.61" r="18.2" transform="translate(-42.82 205.12) rotate(-76.72)"/><path class="cls-19" d="M125.34,129.61a17.16,17.16,0,1,1-17.16-17.16A17.12,17.12,0,0,1,125.34,129.61Z"/><path class="cls-4" d="M121,141a17.16,17.16,0,0,1-22.9,2.44l6.8-2.1c.13.15.25.31.38.47l.87-.16c.55-.1,1.09-.18,1.64-.26a5.13,5.13,0,0,0,.68-2.11l-.94,0c.19-.68-.82-2.09-.82-2.09l-.34,1.87a3.91,3.91,0,0,1-1.14-.4c-.46-.29-1-2.32-1-2.32s-1.18,2-1.44,2.43-.94,0-.94,0a7,7,0,0,1,.11-3.48,1.18,1.18,0,0,0-1.2-1.72,6.17,6.17,0,0,1-.45,1.95,6,6,0,0,0-.46,2.54c0,.72.06,1.22-.45,1.22s-.58-.45-.52-1.22-.74-1.52-.28-2.14.11-2.35.11-2.35c-.28,1.2-1.6,1.15-1.82,2s.62,2.06.22,2.49-1.08,0-1.08,0,.57-.94.17-1.49-1-.83-.75-1.94.8-1.11.64-2.35-.75-1.16,0-1.62a6.1,6.1,0,0,0,1.71-3.57c0-.94-.4-3.11,1.2-3.87s2-1.35,1.71-3.36,1.25-1.87,3.2-1.47c0,0,1-1.54,1.88-1.26s1.6.12,1.79-.4,2.72-.46,3.1,0a2.73,2.73,0,0,0,2.55.46c.83-.34,3,1,3,1.93s-.06,1.44,1.12,2,1.4.79,1.91,2.84-.34,2.86.69,3.65.91,3.95,1,4.92,0,2.05,0,2.05l-.29.09c-.28.07-.51-1.06-.46-1.9s-1.73-2-1.88-2.06c0,.08.36.77.57,1.32a9.93,9.93,0,0,1,.23,3.07c-.06,1,1.08,1.51,1.08,1.51l-1.25.62s-1-2.07-.64-3.15a2.31,2.31,0,0,0-.62-2.05v2.05s-.34.73-.85,1.7.4,1.26.54,1.78-1.12.54-1.12.54l-.24-1.23-.43,1.23a6.69,6.69,0,0,1-2.47.75,4.19,4.19,0,0,0,.5,2c.4,0,.81,0,1.22-.06.8,0,1.64,0,2.45,0h0C118.6,140.87,120,141,121,141Z"/><circle class="cls-18" cx="108.18" cy="129.61" r="18.2" transform="translate(-42.82 205.12) rotate(-76.72)"/><circle class="cls-4" cx="179.8" cy="46.33" r="30.52"/><path class="cls-11" d="M209.32,46.33a29.36,29.36,0,0,1-6.14,18,28.81,28.81,0,0,1-3.51,3.82,27.5,27.5,0,0,1-3.79,2.92.45.45,0,0,1-.17.11A27,27,0,0,1,192.43,73a29.5,29.5,0,0,1-35.1-7.55h0a29.52,29.52,0,1,1,52-19.12Z"/><g id="_Group_" data-name="&lt;Group&gt;"><path class="cls-20" d="M186.67,46.33c.65-1.44,1.11-.82,3,.63a4.77,4.77,0,0,1,2.17,4.3c0,1.54-.29,4.6-.29,4.6l4.88,5.48-2.21,3.33-5.67-6.4s-2.8-2.11-3.27-4.48S186.67,46.33,186.67,46.33Z"/><path class="cls-15" d="M186,44.69l4,7.17a.88.88,0,0,1-.11,1l-3.1,3.58a.88.88,0,0,1-1.42-.12l-3.58-5.91Z"/><polygon class="cls-21" points="185.8 45.46 189.33 52.1 185.97 56.06 182.36 50.19 185.8 45.46"/><path class="cls-4" d="M195.88,71.06c0,.15.05.29.07.43l-.24-.32A27,27,0,0,1,192.43,73c.26-2,.55-3.86.81-5.39s.44-2.55.6-3.36.25-1.28.27-1.36h0a3.9,3.9,0,0,1,1,.34c1.53.75,3,2.54,4.51,4.91A27.5,27.5,0,0,1,195.88,71.06Z"/><path class="cls-4" d="M196,71.49l-.24-.32A27,27,0,0,1,192.43,73a29.5,29.5,0,0,1-35.1-7.55c.51-.12,1-.23,1.55-.33l.16,0,.31-.06c1.35-.26,2.73-.49,4.11-.69h0l1.81-.25c.8-.11,1.6-.2,2.39-.29l.19,0c1.83-.21,3.66-.38,5.44-.51l1.74-.11h0l2.22-.14,2.16-.1.87,0,2.51-.07c2.63-.06,4.94-.06,6.78,0l1.22,0,1.76.05c1,0,1.52,0,1.52,0,.12.44.24.9.35,1.37h0c.51,2,1,4.33,1.42,6.78C195.91,71.21,195.93,71.35,196,71.49Z"/><path class="cls-16" d="M196,71.49l-.24-.32A27,27,0,0,1,192.43,73a29.5,29.5,0,0,1-35.1-7.55l-.72.15.71-.16,1.56-.32.16,0,.31-.06c1.35-.26,2.73-.49,4.11-.69h0l1.81-.25c.8-.11,1.6-.2,2.39-.29l.19,0c1.83-.21,3.66-.38,5.44-.51l1.73-.12,2.24-.13,2.16-.1.87,0,2.5-.08c2.64-.05,5-.05,6.79,0l1.22,0,1.74,0,1.54.06h0c.12.44.24.9.35,1.37h0c.51,2,1,4.33,1.42,6.78C195.91,71.21,195.93,71.35,196,71.49Z"/><path class="cls-20" d="M167.65,63.76c3.24,2.95,11.2,1.86,11.2,1.86s5-1.36,3.92-2.91c-2.92-.48-4.34-1.85-4.92-3.59a8.55,8.55,0,0,1-.3-3.34,17.08,17.08,0,0,1,.24-1.87L168,46.63C169.25,51.44,170.83,60.28,167.65,63.76Z"/><path class="cls-16" d="M170.23,51.26c.39,5.9,5.24,7.53,7.62,7.86a8.55,8.55,0,0,1-.3-3.34Z"/><path class="cls-15" d="M187.2,32.61s1.4,9.18-3.48,12.72-4.87-13.57-4.87-13.57Z"/><path class="cls-20" d="M169.57,52.62a8.33,8.33,0,0,0,9.57,3.23,9.23,9.23,0,0,0,5.3-4.31,9,9,0,0,0,.44-.88c2.4-5.61,3.16-15.43-2.77-19.11a9,9,0,0,0-13.8,6.81C167.58,44.92,166.84,48.74,169.57,52.62Z"/><path class="cls-15" d="M177.87,41.86c-.12.52.12,1,.47,1.07s.7-.33.79-.86-.12-1-.46-1.06S178,41.33,177.87,41.86Z"/><path class="cls-15" d="M183.86,42.89c-.12.51.12,1,.47,1.06s.7-.33.79-.85-.12-1-.46-1.07S184,42.38,183.86,42.89Z"/><path class="cls-22" d="M181.92,42.82a19.09,19.09,0,0,0,1.75,5,3.12,3.12,0,0,1-2.62,0Z"/><path class="cls-15" d="M176.35,39.61a.34.34,0,0,0,.32-.07,2.5,2.5,0,0,1,2.17-.7.32.32,0,0,0,.38-.23.31.31,0,0,0-.23-.38h0a3.13,3.13,0,0,0-2.75.84.33.33,0,0,0,0,.45h0A.38.38,0,0,0,176.35,39.61Z"/><path class="cls-15" d="M186.79,41.26a.28.28,0,0,0,.18,0,.3.3,0,0,0,.22-.38h0a3.14,3.14,0,0,0-1.94-2.13.32.32,0,0,0-.39.21h0a.32.32,0,0,0,.21.39h0a2.57,2.57,0,0,1,1.52,1.72A.31.31,0,0,0,186.79,41.26Z"/><path class="cls-15" d="M174.47,31.06V34a2.17,2.17,0,0,0-1.41,2.58c.63,2.54-1.21,6.14-3.25,7.41,0,0,.07-1.06-.85-.91s-1.34,5.65.07,8.47c0,0-2.33-2.68-3.11-8.62-.72-5.48-.35-9.94,1-11.86Z"/><path class="cls-20" d="M164.56,43.21a6.25,6.25,0,0,0,3,3.73c1.94,1.05,3.39-.58,3.26-2.66-.14-1.85-1.29-4.68-3.44-4.84A2.79,2.79,0,0,0,164.56,43.21Z"/><path class="cls-15" d="M174.47,34s1.9,1.89,3.75.5c0,0,2.09,1.75,3.8.51a3.85,3.85,0,0,0,2.47,1.77A1.33,1.33,0,0,0,186,35.38s2.42,1.39,3.32.74-.49-3.25-.49-3.25,1.14-.62.4-2.71-4.11-1.6-4.11-1.6.13-1.95-2.23-4a2.29,2.29,0,0,0-3.76.48S176.87,22,174,22.38s-2.5,2.36-2.5,2.36-3.26-2-4.72,0,0,3,0,3-3.25,1.09-3.09,3.31S165.56,33,165.56,33s-.93,1.06,1.18,1.95,4.1-1.3,4.1-1.3a1.43,1.43,0,0,0,.7,2.11C173.06,36.57,174.47,34,174.47,34Z"/><path class="cls-15" d="M180.91,49.8a18.14,18.14,0,0,0-1.85,2l-.41-.23c-1.88-1.09-2.39-2.21-2.39-3.13a2.87,2.87,0,0,1,.35-1.28,2.68,2.68,0,0,1,.43-.62,10.12,10.12,0,0,0,3.24,2.89C180.66,49.66,180.91,49.8,180.91,49.8Z"/><path class="cls-6" d="M180.28,49.41l-.56.58c-1.77-1-2.87-2-3.11-2.85a2.68,2.68,0,0,1,.43-.62A10.12,10.12,0,0,0,180.28,49.41Z"/><path class="cls-17" d="M178.65,51.55c-1.88-1.09-2.39-2.21-2.39-3.13A7,7,0,0,1,178.11,50,2.63,2.63,0,0,1,178.65,51.55Z"/><path class="cls-4" d="M178.85,65.62s-11.47-7.79-15.12-8.23-3,4.12-3,4.12-2.82,0-1.74,3.46,16.67,5.38,22.42,3.67,9.18-4.94,8.23-8-3.62-.44-3.62-.44-1.55-2.87-3.78-2.19S178.85,65.62,178.85,65.62Z"/><path class="cls-4" d="M203.18,64.32a28.81,28.81,0,0,1-3.51,3.82,27.5,27.5,0,0,1-3.79,2.92c0,.15.05.29.07.43l-.24-.32c-.76-1-1.64-2.26-2.47-3.55a21.42,21.42,0,0,1-2.41-4.82h0a5.09,5.09,0,0,1-.24-1.24l-1-1.32.31-.36,2.52-3,.55-.64,1.08,1.41s1.39-.5,5.84,3.33A32.56,32.56,0,0,1,203.18,64.32Z"/></g><circle class="cls-4" cx="95.44" cy="234.22" r="28.86"/><path class="cls-11" d="M123.29,234.22A27.64,27.64,0,0,1,117,251.79a28,28,0,0,1-4,4c-.46.38-.94.75-1.44,1.1a27.09,27.09,0,0,1-4.32,2.55,27.76,27.76,0,0,1-25.9-1.13,26,26,0,0,1-3-2h0l-.15-.13a24.73,24.73,0,0,1-3.15-2.9,27.85,27.85,0,1,1,48.21-19Z"/><path class="cls-15" d="M113.08,255.76c-.46.38-.94.75-1.44,1.1a27.09,27.09,0,0,1-4.32,2.55,27.76,27.76,0,0,1-25.9-1.13,26,26,0,0,1-3-2h0l-.15-.13,0-.19h0c.24-.9.47-1.84.68-2.82.3-1.32.57-2.69.81-4.12a60.94,60.94,0,0,0,.84-11.78c-.49-14.75,2.19-20.16,8.22-23.05.27-.13.55-.27.85-.39a8.08,8.08,0,0,1,4.25-.53h0c5.16.7,9.64,5.51,9.64,5.51a34,34,0,0,1,2.36,4,66.5,66.5,0,0,1,6.93,25.44h0A75,75,0,0,1,113.08,255.76Z"/><path class="cls-4" d="M112.87,248.16h0a8.34,8.34,0,0,0-2.91-1.52s-5.88-.57-11-.53l-1.69.08c-2.62.14-5.24.41-7.83.8-.76.11-1.52.23-2.27.37A74.62,74.62,0,0,0,79.77,249c-1.17.31-2.33.65-3.49,1a9.53,9.53,0,0,0-1.2,3.22,24.73,24.73,0,0,0,3.15,2.9l.15.13h0a26,26,0,0,0,3,2,27.76,27.76,0,0,0,25.9,1.13,27.09,27.09,0,0,0,4.32-2.55c.5-.35,1-.72,1.44-1.1a28,28,0,0,0,4-4A38.25,38.25,0,0,0,112.87,248.16Z"/><path class="cls-23" d="M112.87,248.16h0a8.34,8.34,0,0,0-2.91-1.52s-5.88-.57-11-.53l-1.69.08c-2.62.14-5.24.41-7.83.8-.76.11-1.52.23-2.27.37A74.62,74.62,0,0,0,79.77,249c-1.17.31-2.33.65-3.49,1a9.53,9.53,0,0,0-1.2,3.22,24.73,24.73,0,0,0,3.15,2.9l.15.13h0a26,26,0,0,0,3,2,27.76,27.76,0,0,0,25.9,1.13,27.09,27.09,0,0,0,4.32-2.55c.5-.35,1-.72,1.44-1.1a28,28,0,0,0,4-4A38.25,38.25,0,0,0,112.87,248.16Z"/><path class="cls-24" d="M96.81,251.9c-6.48-.83-8.42-3.6-8.42-3.6,2.64-2.49,2.16-6.17,1.49-8.47a13.58,13.58,0,0,0-.8-2.12l7.79,1.46a23.23,23.23,0,0,0-.3,3.28,10.55,10.55,0,0,0,.22,2.42c.53,2.33,1.86,2.36,1.86,2.36C100,249.79,96.81,251.9,96.81,251.9Z"/><path class="cls-16" d="M96.57,242.45a10.55,10.55,0,0,0,.22,2.42c-3.09-.41-5.44-2.89-6.91-5a13.58,13.58,0,0,0-.8-2.12l7.79,1.46A23.23,23.23,0,0,0,96.57,242.45Z"/><path class="cls-24" d="M95.29,217.59c6.78.25,8.82,4,9.06,11,.3,8.76-1.87,14.89-10.28,12.71C82.66,238.3,84,217.17,95.29,217.59Z"/><path class="cls-25" d="M100,228a14.61,14.61,0,0,0,1.87,2.89,1.86,1.86,0,0,1-1.82.7Z"/><path class="cls-15" d="M93,223.89a.33.33,0,0,1-.23-.09.36.36,0,0,1,0-.5,3.9,3.9,0,0,1,3.31-1,.36.36,0,0,1,.29.41.35.35,0,0,1-.41.29,3.19,3.19,0,0,0-2.65.8A.36.36,0,0,1,93,223.89Z"/><path class="cls-15" d="M103.58,223.53a.33.33,0,0,1-.21-.07,2.84,2.84,0,0,0-2.37-.61.35.35,0,0,1-.21-.67,3.51,3.51,0,0,1,3,.71.36.36,0,0,1,.08.49A.35.35,0,0,1,103.58,223.53Z"/><path class="cls-15" d="M99,234.23a17.47,17.47,0,0,0-.88,2.32l-.44-.05c-2-.28-2.78-1.05-3.1-1.83a2.63,2.63,0,0,1-.15-1.2,2.81,2.81,0,0,1,.15-.68,9.32,9.32,0,0,0,3.75,1.33C98.69,234.2,99,234.23,99,234.23Z"/><path class="cls-6" d="M98.28,234.12l-.28.68c-1.85-.26-3.12-.69-3.62-1.33a2.81,2.81,0,0,1,.15-.68A9.32,9.32,0,0,0,98.28,234.12Z"/><path class="cls-17" d="M97.63,236.5c-2-.28-2.78-1.05-3.1-1.83a6.53,6.53,0,0,1,2.12.73A2.34,2.34,0,0,1,97.63,236.5Z"/><path class="cls-15" d="M87.45,228.74s3.38-5.45,3.06-9.77c0,0,13.64-5,13.79,8.67,0,0,1.77-12.06-9.88-12.76S82.2,231.23,88,236.53C88,236.53,85.36,232.15,87.45,228.74Z"/><path class="cls-24" d="M88.51,230.21a3,3,0,0,0-3.1-2.84c-2.11.16-3.27,4.43,1.91,5.66C88.07,233.21,88.52,232.49,88.51,230.21Z"/><path class="cls-15" d="M91.48,213.11c3.67-1,13.44-1.16,15.75,9l-1.36.68a21.66,21.66,0,0,0-7.33-2.18,17.22,17.22,0,0,0-1.9-2.71,15.79,15.79,0,0,1,0,2.58s-6.38.93-9.23,3.53c-4.48,4.07-4.76,6.65-4.76,6.65S79.55,216.42,91.48,213.11Z"/><path class="cls-15" d="M108.18,222a.24.24,0,0,1-.23-.16,11.86,11.86,0,0,0-5.9-7.29c-5-2.47-11-.46-11-.44a.23.23,0,0,1-.31-.15.24.24,0,0,1,.15-.31c.06,0,6.2-2.1,11.41.46a12.33,12.33,0,0,1,6.14,7.57.25.25,0,0,1-.15.31Z"/><path class="cls-15" d="M94,227.31s1.59-1.35,2.34.47A4.73,4.73,0,0,0,94,227.31Z"/><path class="cls-15" d="M101.53,228.31s.88-1.83,2-.53A4.54,4.54,0,0,0,101.53,228.31Z"/><circle class="cls-4" cx="373.86" cy="283.8" r="35.76" transform="translate(-91.17 347.48) rotate(-45)"/><path class="cls-11" d="M408.62,283.79a34.44,34.44,0,0,1-3.71,15.61c-.47.94-1,1.85-1.54,2.74-.43.69-.88,1.37-1.37,2a34.8,34.8,0,0,1-7.25,7.39c-.63.48-1.28.93-1.95,1.37a34.71,34.71,0,0,1-33.31,2.52c-.56-.26-1.12-.53-1.67-.81h0a35.18,35.18,0,0,1-14.55-14.31c-.46-.86-.89-1.75-1.28-2.65h0a34.76,34.76,0,1,1,66.64-13.88Z"/><g id="_Group_2" data-name="&lt;Group&gt;"><path class="cls-26" d="M356.51,282.42a18.05,18.05,0,0,1-2.15,2.6l-3,14.19-2,9.26a35,35,0,0,1-6.13-8.15c.24-.75.5-1.53.75-2.32,2.12-6.58,4.56-14.2,4.74-14.95.32-1.34-.85-7.91-.58-9.12s6.27-2.62,7.57-2.6S357,281.57,356.51,282.42Z"/><path class="cls-4" d="M361.2,298.05a.18.18,0,0,1,0,.05L359.93,311l-.44,4.42c-.56-.26-1.12-.53-1.67-.81h0a35.18,35.18,0,0,1-14.55-14.31c-.46-.86-.89-1.75-1.28-2.65l2,.33,7.34,1.21,1.58.26-1.85,9S357.82,299.07,361.2,298.05Z"/><path class="cls-27" d="M361.2,298.05a.18.18,0,0,1,0,.05L359.93,311l-.44,4.42c-.56-.26-1.12-.53-1.67-.81h0a35.18,35.18,0,0,1-14.55-14.31c-.46-.86-.89-1.75-1.28-2.65l2,.33,7.34,1.21,1.58.26-1.85,9S357.82,299.07,361.2,298.05Z"/><path class="cls-4" d="M404.91,299.4c-.47.94-1,1.85-1.54,2.74-.43.69-.88,1.37-1.37,2a34.8,34.8,0,0,1-7.25,7.39c-.63.48-1.28.93-1.95,1.37a34.71,34.71,0,0,1-33.31,2.52c-.56-.26-1.12-.53-1.67-.81h0a114.26,114.26,0,0,1,3.37-16.53.18.18,0,0,0,0-.05,72.22,72.22,0,0,1,11-2.24h.18a139.25,139.25,0,0,1,16.09-.34h0a76.44,76.44,0,0,1,11.09,1.1A30.43,30.43,0,0,1,404.91,299.4Z"/><path class="cls-27" d="M404.91,299.4c-.47.94-1,1.85-1.54,2.74-.43.69-.88,1.37-1.37,2a34.8,34.8,0,0,1-7.25,7.39c-.63.48-1.28.93-1.95,1.37a34.71,34.71,0,0,1-33.31,2.52c-.56-.26-1.12-.53-1.67-.81h0a114.26,114.26,0,0,1,3.37-16.53.18.18,0,0,0,0-.05,72.22,72.22,0,0,1,11-2.24h.18a139.25,139.25,0,0,1,16.09-.34h0a76.44,76.44,0,0,1,11.09,1.1A30.43,30.43,0,0,1,404.91,299.4Z"/><path class="cls-12" d="M394.75,311.56c-.63.48-1.28.93-1.95,1.37a34.71,34.71,0,0,1-33.31,2.52c-.56-.26-1.12-.53-1.67-.81h0c.05-.29.09-.58.13-.86a32.29,32.29,0,0,1,2-2.74,93.31,93.31,0,0,1,11.17-11.41,6.36,6.36,0,0,0,3.89,2c3.28.64,7-.89,10.14-2.74a76.17,76.17,0,0,1,5.45,6,31.73,31.73,0,0,1,3.69,5.54Q394.54,311,394.75,311.56Z"/><path class="cls-26" d="M388.52,295.51a16.87,16.87,0,0,1-11.84,5.37c-6.73.3-4.48-5-4.48-5,2.47-.64,3.84-1.8,4.53-3.21.87-1.81.62-4.05.06-6.25l-.12-.46,9.84-8.76C385.6,282.44,384.78,292.08,388.52,295.51Z"/><path class="cls-16" d="M384.89,284.89c-.52,3.38-4.63,6.71-8.16,7.75.87-1.81.62-4.05.06-6.25l8.15-6.24A12.59,12.59,0,0,1,384.89,284.89Z"/><path class="cls-15" d="M378.52,265.79c2.33,2.64.22,5.56-7.47,9-1.73-4-.49-10.67,2-11.79S376.48,263.5,378.52,265.79Z"/><path class="cls-26" d="M389.32,274.15c-2.07,6.82-2.94,10.91-7.27,13.64-6.52,4.1-14.32-1.1-14.33-8.4,0-6.56,3.37-16.62,10.8-17.76a9.72,9.72,0,0,1,11.13,8.07A9.86,9.86,0,0,1,389.32,274.15Z"/><path class="cls-15" d="M378.53,273.6c-.13.56-.54.95-.91.86s-.55-.61-.42-1.18.53-.95.9-.86S378.62,273,378.53,273.6Z"/><path class="cls-15" d="M372.12,272.09c-.13.56-.54,1-.91.86s-.56-.61-.43-1.18.55-.95.91-.86S372.26,271.52,372.12,272.09Z"/><path class="cls-28" d="M374.15,272.85a20.59,20.59,0,0,1-3.84,4.18,3.36,3.36,0,0,0,2.58,1.14Z"/><path class="cls-15" d="M380.76,272a.33.33,0,0,0,.22,0,.35.35,0,0,0,.18-.45,3.36,3.36,0,0,0-2.37-2,.34.34,0,0,0-.39.26v0a.34.34,0,0,0,.28.39h0a2.67,2.67,0,0,1,1.85,1.61A.36.36,0,0,0,380.76,272Z"/><path class="cls-15" d="M369.72,269.24a.38.38,0,0,0,.35-.12,2.69,2.69,0,0,1,2.21-1.06.34.34,0,0,0,.38-.3.34.34,0,0,0-.3-.37,3.39,3.39,0,0,0-2.82,1.3.33.33,0,0,0,0,.47h0Z"/><path class="cls-15" d="M388,267.36c-3.5.34-3.93,3.93-.63,11.67,4-1.77,7.62-7.49,6.55-10S391.07,267.07,388,267.36Z"/><path class="cls-26" d="M391.3,280.47a6.79,6.79,0,0,1-4.07,3.2c-2.29.62-3.42-1.44-2.77-3.59.59-1.94,2.49-4.6,4.78-4.27A3,3,0,0,1,391.3,280.47Z"/><path class="cls-15" d="M381.29,264.48s-.73,7.17,5.81,9.31,9-1.61,9-1.61a12.11,12.11,0,0,1-1.67-.29,7.12,7.12,0,0,0,1.68-6.59c-1.11-3.74-6.89-8.81-12.25-8.33a12.07,12.07,0,0,0-9.55-1.47c-5.29,1.5-6,7.54-6,7.54s.69-3.59,3.1-4c0,0-4.53,6.62-1,9.59C370.44,268.59,372.67,261.51,381.29,264.48Z"/><path class="cls-15" d="M371.66,280.77A19.16,19.16,0,0,1,373,283.2l.47-.13c2.14-.6,2.93-1.58,3.16-2.49a2.94,2.94,0,0,0,0-1.36,2.83,2.83,0,0,0-.27-.72,10.59,10.59,0,0,1-3.94,2.05Z"/><path class="cls-6" d="M372.39,280.55l.41.71c2-.58,3.34-1.25,3.8-2a2.83,2.83,0,0,0-.27-.72A10.59,10.59,0,0,1,372.39,280.55Z"/><path class="cls-17" d="M373.46,283.07c2.14-.6,2.93-1.58,3.16-2.49a7,7,0,0,0-2.24,1.14A2.69,2.69,0,0,0,373.46,283.07Z"/></g></g><g id="Speech_bubble" data-name="Speech bubble"><rect class="cls-4" x="251.05" y="94.05" width="21.1" height="21.1" rx="3.69" transform="translate(5.3 -12.38) rotate(2.74)"/><path class="cls-29" d="M267.6,100.73c-1.37-2.49-4.26-1.7-5.82.11-1.38-2-4.18-3-5.78-.67-2.71,4,2.28,8,4.65,9.58l.68.45.72-.39C264.56,108.45,269.91,104.92,267.6,100.73Z"/><path class="cls-4" d="M263.44,113.61s-3.07,6.19-9.36,7.87c0,0,3.52-1.81,3.57-8.41Z"/></g><g id="Character"><path class="cls-20" d="M279.51,178.88s7.94-7.94,10.49-13.6c0,0-1-3.16-.06-4.8s6.2-6.33,7.61-5.33,3.45,4.93,2.61,6.59-6,5-6,5-6.43,12.89-10.41,15.8S279.51,178.88,279.51,178.88Z"/><path class="cls-15" d="M259.43,155c4.62.6,9.9,23,13.59,25.13s13.28-10.28,13.28-10.28l4.39,5S278,192.51,273,190.94s-14.43-19-14.43-19Z"/><path class="cls-30" d="M259.43,155c4.62.6,9.9,23,13.59,25.13s13.28-10.28,13.28-10.28l4.39,5S278,192.51,273,190.94s-14.43-19-14.43-19Z"/><polygon class="cls-20" points="287.49 361.8 281.42 362.87 278.93 354.59 276.65 346.99 283.66 344.54 285.69 353.68 287.49 361.8"/><path class="cls-15" d="M280.05,362.71c-.1-.67,8.22-1.6,8.22-1.6s6,4.26,11.09,4.54,2.89,3.73-2.6,4.7l-13.6,2.4C279.26,373.44,281.11,369.68,280.05,362.71Z"/><path class="cls-4" d="M292.35,362.5a13,13,0,0,1-3-.49l-.07,0h0l-.06-.06h0l0-.06h0a.31.31,0,0,1,0-.1c0-.09.37-2.13,1.4-2.79a1.3,1.3,0,0,1,1.07-.16c.41.12.63.32.67.6,0,.44-.46,1-1.07,1.45a3.36,3.36,0,0,1,1.88-.12.88.88,0,0,1,.54.47.83.83,0,0,1,0,.92A1.79,1.79,0,0,1,292.35,362.5Zm-2.25-.76c1.3.3,2.89.49,3.22.1,0,0,.12-.14,0-.44a.46.46,0,0,0-.29-.25A5.4,5.4,0,0,0,290.1,361.74Zm1.21-2.54a.88.88,0,0,0-.46.14,3.75,3.75,0,0,0-1.1,2c1.14-.68,2.2-1.52,2.16-1.9,0-.11-.22-.19-.34-.22A1.17,1.17,0,0,0,291.31,359.2Z"/><polygon class="cls-16" points="285.72 353.87 278.96 354.76 276.67 347.07 283.67 344.58 285.72 353.87"/><polygon class="cls-20" points="246.94 364.4 240.77 364.4 239.76 355.81 238.84 347.93 246.17 346.74 246.58 356.09 246.94 364.4"/><path class="cls-15" d="M239.45,364c0-.68,8.37-.15,8.37-.15s5.14,5.23,10.14,6.4,2.2,4.17-3.38,4.17H240.77C236.81,374.43,239.29,371.05,239.45,364Z"/><path class="cls-4" d="M252.22,366a10.43,10.43,0,0,1-3.46-1.06.16.16,0,0,1-.08-.06h0l0,0a.25.25,0,0,1,0-.17c0-.09.73-2,1.87-2.51a1.28,1.28,0,0,1,1.08,0c.38.18.56.42.55.7,0,.44-.62.88-1.3,1.25a3.45,3.45,0,0,1,1.87.2.9.9,0,0,1,.45.57.82.82,0,0,1-.2.89A1.2,1.2,0,0,1,252.22,366Zm-2.7-1.2c1.23.52,2.76,1,3.16.66,0,0,.13-.12,0-.44a.47.47,0,0,0-.24-.3A5.5,5.5,0,0,0,249.52,364.8Zm1.49-2.3a.78.78,0,0,0-.33.07,3.67,3.67,0,0,0-1.44,1.8c1.24-.48,2.44-1.13,2.46-1.5,0-.12-.19-.23-.3-.28A.92.92,0,0,0,251,362.5Z"/><polygon class="cls-16" points="246.58 356.28 239.76 355.98 238.84 348.02 246.17 346.78 246.58 356.28"/><path class="cls-4" d="M286.3,349.05l-10,1.76c-10.08-25.11-17.24-46.06-22.3-63.45-2.73-9.39-4.85-17.73-6.49-25.13l.46,27.32v62.09H237.84c-24.67-117.64-7.19-144.52-7.19-144.52l29.51-5a133.25,133.25,0,0,1,2.47,16.51l1.33,9.76,11.54,59.56Z"/><polygon class="cls-4" points="274.75 349.57 287.13 345.47 286.96 350.73 276.72 354 274.75 349.57"/><polygon class="cls-4" points="236.51 350.14 249.43 348.25 248.34 353.41 237.69 354.85 236.51 350.14"/><path class="cls-15" d="M257.5,142.74a.31.31,0,0,1-.13,0c-3.76-2.28-7.12-10.63-7.26-11a.25.25,0,0,1,.14-.33.26.26,0,0,1,.33.14c0,.09,3.43,8.55,7,10.74a.25.25,0,0,1,.09.34A.25.25,0,0,1,257.5,142.74Z"/><path class="cls-15" d="M227.23,120.8s1.47-5,11.27-5.84,14.67,8.81,12.36,16c0,0,2.06,9.77,6,12.63,0,0-18.86,8.53-28.38,8.57-2.12,0-6.64-10.5-7.23-18.09C220.71,126.75,222.91,121,227.23,120.8Z"/><polygon class="cls-15" points="230.65 202.71 230.65 207.12 260.75 204.81 260.75 199.6 230.65 202.71"/><polygon class="cls-31" points="230.65 202.71 230.65 207.12 260.75 204.81 260.75 199.6 230.65 202.71"/><rect class="cls-6" x="247.42" y="200.96" width="6.61" height="5.01" transform="translate(-17.15 23.18) rotate(-5.12)"/><rect class="cls-4" x="239.46" y="200.89" width="1.49" height="7.61" transform="translate(-10.14 12.53) rotate(-2.93)"/><rect class="cls-4" x="257.84" y="198.87" width="1.49" height="7.61" transform="translate(-9.99 13.43) rotate(-2.92)"/><path class="cls-15" d="M260.87,200.13l-30.1,2.6c-.29-4.55-.58-8.45-1.27-12.82-.44-2.8-1.05-5.8-1.93-9.29-.68-2.73-1.53-5.77-2.61-9.25-.05-.19-.11-.38-.17-.57-.62-2-5-.47-5.43-2.86-1.74-10.64,9.74-11.42,14-12.12a95.8,95.8,0,0,1,13.52-1.42c5.85-.05,12.58.61,12.58.61s1,.23,1.56,6.44C261.54,167.27,262.08,178.93,260.87,200.13Z"/><path class="cls-20" d="M244.36,161c-7.41-.95-9.64-4.12-9.64-4.12,4.7-4.44.79-12.13.79-12.13l8.93,1.67a27.77,27.77,0,0,0-.35,3.75c-.06,5.42,2.39,5.48,2.39,5.48C248,158.62,244.36,161,244.36,161Z"/><path class="cls-16" d="M244.44,146.46a27.77,27.77,0,0,0-.35,3.75c-6,0-8.58-5.42-8.58-5.42Z"/><path class="cls-20" d="M237.6,121.47c7.58-1.72,10.94,1.78,13.26,9.47,2.91,9.61,2.31,17-7.64,17.1C229.71,148.12,225,124.32,237.6,121.47Z"/><path class="cls-22" d="M245.86,131.63a16.4,16.4,0,0,0,2.92,2.64,2.12,2.12,0,0,1-1.8,1.31Z"/><path class="cls-15" d="M241.08,132.06c.16.62-.05,1.2-.46,1.31s-.88-.32-1-.94,0-1.2.46-1.31S240.93,131.44,241.08,132.06Z"/><path class="cls-15" d="M239.89,131.2l1.21-.87S240.72,131.63,239.89,131.2Z"/><path class="cls-15" d="M248.75,130c.16.62-.05,1.21-.46,1.31s-.88-.31-1-.93.05-1.21.46-1.31S248.6,129.38,248.75,130Z"/><path class="cls-15" d="M247.56,129.13l1.21-.86S248.39,129.57,247.56,129.13Z"/><path class="cls-15" d="M236.79,129.09l-.16,0a.36.36,0,0,1-.16-.49,4.35,4.35,0,0,1,3.32-2.09.37.37,0,0,1,.39.33.36.36,0,0,1-.32.39,3.69,3.69,0,0,0-2.74,1.69A.35.35,0,0,1,236.79,129.09Z"/><path class="cls-15" d="M245.26,125.63a.36.36,0,0,1-.2-.66,4,4,0,0,1,3.49-.1.36.36,0,1,1-.26.68,3.23,3.23,0,0,0-2.83,0A.46.46,0,0,1,245.26,125.63Z"/><path class="cls-15" d="M246.55,138.81a20.11,20.11,0,0,0-.29,2.84c-.17,0-.33,0-.5.06-2.25.28-3.39-.34-4-1.11a3.15,3.15,0,0,1-.55-2.08,10.67,10.67,0,0,0,4.54.38C246.25,138.86,246.55,138.81,246.55,138.81Z"/><path class="cls-6" d="M245.78,138.9l-.11.83c-2.13.26-3.66.15-4.4-.41a2.78,2.78,0,0,1,0-.8A10.67,10.67,0,0,0,245.78,138.9Z"/><path class="cls-17" d="M245.76,141.71c-2.25.28-3.39-.34-4-1.11a7.61,7.61,0,0,1,2.57.19A2.82,2.82,0,0,1,245.76,141.71Z"/><path class="cls-15" d="M232.2,136.12s2.14-7,.51-11.72c0,0,13.64-9.54,17.83,5.54,0,0-1.6-13.87-14.7-11.22s-8.73,21.7-.71,25.86C235.13,144.58,230.89,140.51,232.2,136.12Z"/><path class="cls-20" d="M233.81,137.44a3.42,3.42,0,0,0-4.27-2.23c-2.29.79-2.32,5.87,3.78,5.7C234.2,140.89,234.49,140,233.81,137.44Z"/><path class="cls-15" d="M232.71,124.4s7.86-2.89,12.28-.71c0,0-4.76-4.28-12.84-.25Z"/><path class="cls-20" d="M227.84,157.75s8.71,7.06,16.82,6.95,11-9.23,11-9.23S243,151.74,227.84,157.75Z"/><path class="cls-16" d="M254,287.36c-2.73-9.39-4.85-17.73-6.49-25.13A232.53,232.53,0,0,1,249.43,236S253.75,269.82,254,287.36Z"/><path class="cls-20" d="M203.47,173.4s-6-9.51-7.2-15.59c0,0,1.65-2.87,1.13-4.67s-4.63-7.55-6.22-6.9-4.47,4-4,5.84,4.76,6.26,4.76,6.26,3.39,14,6.62,17.72S203.47,173.4,203.47,173.4Z"/><path class="cls-15" d="M219.72,162.72c3-.42,9.16,5.5,8.23,10.62s-9.51,19.52-16.13,18.4c-9.35-1.58-19.62-26.23-19.62-26.23l5.13-4.47s12.11,21,14.49,20.56S219.72,162.72,219.72,162.72Z"/><path class="cls-30" d="M219.72,162.72c3-.42,9.16,5.5,8.23,10.62s-9.51,19.52-16.13,18.4c-9.35-1.58-19.62-26.23-19.62-26.23l5.13-4.47s12.11,21,14.49,20.56S219.72,162.72,219.72,162.72Z"/><polygon class="cls-15" points="190.1 164.01 197.59 159.51 198.78 161.45 191.71 167.71 190.1 164.01"/><polygon class="cls-15" points="284.63 169.72 290.69 177.23 291.75 174.87 286.3 168.53 284.63 169.72"/><path class="cls-4" d="M287.66,159.56l9.58-11.67a.9.9,0,0,1,1.32-.08l4.27,4a.9.9,0,0,1,.08,1.23L293.18,165a.9.9,0,0,1-1.35.06l-4.13-4.31A.91.91,0,0,1,287.66,159.56Z"/><path class="cls-14" d="M287.66,159.56l9.58-11.67a.9.9,0,0,1,1.32-.08l4.27,4a.9.9,0,0,1,.08,1.23L293.18,165a.9.9,0,0,1-1.35.06l-4.13-4.31A.91.91,0,0,1,287.66,159.56Z"/><path class="cls-4" d="M287.27,159.09l9.59-11.67a.9.9,0,0,1,1.32-.08l4.27,4a.91.91,0,0,1,.08,1.23l-9.73,11.94a.91.91,0,0,1-1.36.06l-4.12-4.31A.9.9,0,0,1,287.27,159.09Z"/><polygon class="cls-29" points="297.24 147.89 301.98 152.47 292.71 163.88 288.1 159.03 297.24 147.89"/></g></g></svg>