<svg xmlns="http://www.w3.org/2000/svg" viewBox="0 0 500 368.76"><defs><style>.cls-1{fill:#ebebeb;}.cls-2{fill:#f5f5f5;}.cls-3{fill:#f0f0f0;}.cls-4{fill:#e6e6e6;}.cls-5{fill:#fafafa;}.cls-6{fill:#e0e0e0;}.cls-7{fill:#263238;}.cls-12,.cls-13,.cls-14,.cls-15,.cls-16,.cls-20,.cls-22,.cls-23,.cls-8{fill:#fff;}.cls-8{opacity:0.5;}.cls-9{fill:#407bff;}.cls-10,.cls-13{opacity:0.2;}.cls-11{fill:#ebb376;}.cls-12,.cls-17{opacity:0.1;}.cls-14{opacity:0.6;}.cls-15{opacity:0.3;}.cls-16{opacity:0.4;}.cls-18{fill:#d58745;}.cls-19{fill:#2e353a;}.cls-21{fill:#de5753;}.cls-22,.cls-28{opacity:0.8;}.cls-23{opacity:0.7;}.cls-24{fill:#b97964;}.cls-25{fill:#a24e3f;}.cls-26{fill:#577afb;}.cls-27{fill:#eec1bb;}</style></defs><g id="Layer_2" data-name="Layer 2"><g id="Background_Complete" data-name="Background Complete"><rect class="cls-1" x="416.78" y="343.54" width="33.12" height="0.25"/><rect class="cls-1" x="322.53" y="346.26" width="8.69" height="0.25"/><rect class="cls-1" x="396.59" y="334.26" width="19.19" height="0.25"/><rect class="cls-1" x="52.46" y="335.94" width="43.19" height="0.25"/><rect class="cls-1" x="104.56" y="335.94" width="6.33" height="0.25"/><rect class="cls-1" x="131.47" y="340.16" width="93.68" height="0.25"/><path class="cls-1" d="M237,282.85H43.92a5.71,5.71,0,0,1-5.71-5.71V5.71A5.71,5.71,0,0,1,43.92,0H237a5.71,5.71,0,0,1,5.71,5.71V277.14A5.71,5.71,0,0,1,237,282.85ZM43.92.25a5.47,5.47,0,0,0-5.46,5.46V277.14a5.47,5.47,0,0,0,5.46,5.46H237a5.47,5.47,0,0,0,5.46-5.46V5.71A5.47,5.47,0,0,0,237,.25Z"/><path class="cls-1" d="M453.31,282.85H260.21a5.72,5.72,0,0,1-5.71-5.71V5.71A5.72,5.72,0,0,1,260.21,0h193.1A5.71,5.71,0,0,1,459,5.71V277.14A5.71,5.71,0,0,1,453.31,282.85ZM260.21.25a5.47,5.47,0,0,0-5.46,5.46V277.14a5.47,5.47,0,0,0,5.46,5.46h193.1a5.47,5.47,0,0,0,5.46-5.46V5.71A5.47,5.47,0,0,0,453.31.25Z"/><rect class="cls-1" y="327.45" width="500" height="0.25"/><path class="cls-2" d="M170.9,304.45h23.17l-12.18-99.21a8.84,8.84,0,0,0-8.54-7.6H72.25L87.07,304.45Z"/><path class="cls-3" d="M97.41,304.45H74.24L62.06,205.24a6.58,6.58,0,0,1,6.67-7.6h8a8.83,8.83,0,0,1,8.53,7.6Z"/><path class="cls-4" d="M106,304.33l-4.2-48a4.57,4.57,0,0,0-4-4.14L96.05,252a6.16,6.16,0,0,1-5.34-5.55L90,237.69A6.13,6.13,0,0,1,96.06,231H57.34a6.13,6.13,0,0,0-6.11,6.67l.76,8.75A6.14,6.14,0,0,0,57.33,252l1.72.22a4.58,4.58,0,0,1,4,4.14l4.2,48A6.76,6.76,0,0,0,74,310.51H112.7A6.78,6.78,0,0,1,106,304.33Z"/><path class="cls-4" d="M212.51,244.34A14.59,14.59,0,0,1,227.05,231H193.33a14.59,14.59,0,0,0-14.53,13.32l-3.33,38h33.72Z"/><path class="cls-3" d="M242,231h-15a14.59,14.59,0,0,0-14.54,13.32l-3.32,38H128.9l-3.33-38A14.59,14.59,0,0,0,111,231h-15A6.13,6.13,0,0,0,90,237.69l.76,8.75A6.16,6.16,0,0,0,96.05,252l1.73.22a4.57,4.57,0,0,1,4,4.14l4.2,48a6.78,6.78,0,0,0,6.75,6.18H225.38a6.77,6.77,0,0,0,6.75-6.18l4.2-48a4.58,4.58,0,0,1,4-4.14L242,252a6.14,6.14,0,0,0,5.34-5.55l.76-8.75A6.13,6.13,0,0,0,242,231Z"/><circle class="cls-2" cx="140.93" cy="93.39" r="44.39"/><circle class="cls-5" cx="140.93" cy="93.39" r="37.64"/><path class="cls-4" d="M140.93,55.74c-.59,0-1.18,0-1.77,0a37.64,37.64,0,0,1,0,75.19c.59,0,1.18.05,1.77.05a37.65,37.65,0,0,0,0-75.29Z"/><path class="cls-3" d="M140.94,131h0c.95,0,1.89-.13,2.83-.24V96.21h32.93c.07-.93.11-1.87.11-2.82s0-1.9-.11-2.83H143.76V56c-.94-.12-1.88-.21-2.83-.25H138.1V90.56H103.33v5.65H138.1V131Z"/><rect class="cls-4" x="135.27" y="55.79" width="2.83" height="34.77"/><rect class="cls-4" x="135.27" y="96.21" width="2.83" height="34.77"/><circle class="cls-2" cx="359.07" cy="93.39" r="44.39"/><circle class="cls-5" cx="359.07" cy="93.39" r="37.64"/><path class="cls-4" d="M359.07,55.74c-.59,0-1.18,0-1.76,0a37.64,37.64,0,0,1,0,75.19c.58,0,1.17.05,1.76.05a37.65,37.65,0,1,0,0-75.29Z"/><path class="cls-3" d="M359.09,131h0c1,0,1.9-.13,2.83-.24V96.21h32.93c.07-.93.12-1.87.12-2.82s-.05-1.9-.12-2.83H361.9V56c-.93-.12-1.87-.21-2.83-.25h-2.83V90.56H321.47v5.65h34.77V131Z"/><rect class="cls-4" x="353.42" y="55.79" width="2.83" height="34.77"/><rect class="cls-4" x="353.42" y="96.21" width="2.83" height="34.77"/><rect class="cls-1" x="282.55" y="273.29" width="76.87" height="26.53" transform="translate(641.98 573.11) rotate(180)"/><rect class="cls-1" x="282.55" y="299.82" width="76.87" height="26.53" transform="translate(641.98 626.18) rotate(180)"/><rect class="cls-1" x="362.11" y="273.29" width="76.87" height="26.53" transform="translate(801.09 573.11) rotate(180)"/><rect class="cls-1" x="362.11" y="299.82" width="76.87" height="26.53" transform="translate(801.09 626.18) rotate(180)"/><polygon class="cls-3" points="409.77 299.82 400.2 273.29 414.92 273.29 424.49 299.82 409.77 299.82"/><polygon class="cls-3" points="393.08 273.29 396.31 273.29 405.88 299.82 402.64 299.82 393.08 273.29"/><polygon class="cls-3" points="419.33 326.36 409.77 299.82 424.49 299.82 434.05 326.36 419.33 326.36"/><polygon class="cls-3" points="402.64 299.82 405.88 299.82 415.44 326.36 412.21 326.36 402.64 299.82"/><polygon class="cls-3" points="299.82 299.82 290.26 273.29 304.98 273.29 314.54 299.82 299.82 299.82"/><polygon class="cls-3" points="283.14 273.29 286.37 273.29 295.93 299.82 292.7 299.82 283.14 273.29"/><polygon class="cls-3" points="309.39 326.36 299.82 299.82 314.54 299.82 324.11 326.36 309.39 326.36"/><polygon class="cls-3" points="292.7 299.82 295.93 299.82 305.5 326.36 302.26 326.36 292.7 299.82"/><rect class="cls-6" x="399.2" y="237.59" width="2.68" height="76.87" transform="translate(676.57 -124.52) rotate(90)"/><rect class="cls-6" x="399.2" y="263.92" width="2.68" height="76.87" transform="translate(702.9 -98.19) rotate(90)"/><path class="cls-6" d="M398.58,290a1.15,1.15,0,1,1,0-2.3h3.93a1.15,1.15,0,1,1,0,2.3Z"/><path class="cls-2" d="M398.58,289.54a1.15,1.15,0,1,1,0-2.3h3.93a1.15,1.15,0,1,1,0,2.3Z"/><path class="cls-6" d="M398.58,314.44a1.15,1.15,0,1,1,0-2.3h3.93a1.15,1.15,0,1,1,0,2.3Z"/><path class="cls-2" d="M398.58,314a1.16,1.16,0,1,1,0-2.31h3.93a1.16,1.16,0,0,1,0,2.31Z"/><path class="cls-2" d="M360.77,272.1v55.41h79.55V272.1Zm2.68,29.12h74.19v23.61H363.45Zm0-26.29h74.19v23.61H363.45Z"/><rect class="cls-6" x="319.65" y="237.59" width="2.68" height="76.87" transform="translate(597.02 -44.96) rotate(90)"/><rect class="cls-6" x="319.65" y="263.92" width="2.68" height="76.87" transform="translate(623.34 -18.64) rotate(90)"/><path class="cls-6" d="M319,290a1.15,1.15,0,0,1,0-2.3H323a1.15,1.15,0,0,1,0,2.3Z"/><path class="cls-2" d="M319,289.54a1.15,1.15,0,1,1,0-2.3H323a1.15,1.15,0,1,1,0,2.3Z"/><path class="cls-6" d="M319,314.44a1.15,1.15,0,0,1,0-2.3H323a1.15,1.15,0,0,1,0,2.3Z"/><path class="cls-2" d="M319,314a1.16,1.16,0,0,1,0-2.31H323a1.16,1.16,0,0,1,0,2.31Z"/><path class="cls-2" d="M281.21,272.1v55.41h79.56V272.1Zm2.69,29.12h74.18v23.61H283.9Zm0-26.29h74.18v23.61H283.9Z"/><path class="cls-6" d="M395,267.71H383.14l-2.75-11.66h-4.75l-2.74,11.66H361a3.68,3.68,0,0,0-3.68,3.68v.71h41.34v-.71A3.68,3.68,0,0,0,395,267.71Z"/><rect class="cls-6" x="325.45" y="193.99" width="105.15" height="68.06"/><rect class="cls-2" x="327.45" y="195.99" width="101.15" height="61.06"/><polygon class="cls-5" points="383.2 257.05 420.41 257.05 398.4 195.99 361.19 195.99 383.2 257.05"/><polygon class="cls-5" points="365.19 257.05 373.37 257.05 351.36 195.99 343.18 195.99 365.19 257.05"/><polygon class="cls-2" points="220.87 327.57 115.64 327.57 115.64 309.51 223.87 309.51 220.87 327.57"/><polygon class="cls-6" points="124.19 327.7 77.49 327.7 75.49 309.51 122.19 309.51 124.19 327.7"/></g><g id="Shadow"><ellipse id="_Path_" data-name="&lt;Path&gt;" class="cls-2" cx="245.18" cy="357.44" rx="193.89" ry="11.32"/></g><g id="Character"><polygon class="cls-7" points="375.18 356.01 370.39 356.01 369.34 282.94 376.23 282.94 375.18 356.01"/><polygon class="cls-8" points="375.18 356.01 370.39 356.01 369.34 282.94 376.23 282.94 375.18 356.01"/><polygon class="cls-7" points="332.88 356.01 328.08 356.01 327.04 282.94 333.93 282.94 332.88 356.01"/><polygon class="cls-8" points="332.88 356.01 328.08 356.01 327.04 282.94 333.93 282.94 332.88 356.01"/><polygon class="cls-7" points="323.06 356.01 318.27 356.01 317.22 282.94 324.11 282.94 323.06 356.01"/><polygon class="cls-8" points="323.06 356.01 318.27 356.01 317.22 282.94 324.11 282.94 323.06 356.01"/><polygon class="cls-7" points="280.76 356.01 275.96 356.01 274.92 282.94 281.81 282.94 280.76 356.01"/><polygon class="cls-8" points="280.76 356.01 275.96 356.01 274.92 282.94 281.81 282.94 280.76 356.01"/><path class="cls-9" d="M352.2,284.61H274.45a6.4,6.4,0,0,1-6.41-6.4v-8.54a6.41,6.41,0,0,1,6.41-6.41h68.84l5.93-56.42a13.84,13.84,0,0,1,13.44-12.15h28.89l-6.9,21.06-6.3,47.16-4.43,13.18Z"/><path class="cls-10" d="M352.2,284.61H274.45a6.4,6.4,0,0,1-6.41-6.4v-8.54a6.41,6.41,0,0,1,6.41-6.41h68.84l5.93-56.42a13.84,13.84,0,0,1,13.44-12.15h28.89l-6.9,21.06-6.3,47.16-4.43,13.18Z"/><path class="cls-9" d="M393.94,194.69h-5.77a13.83,13.83,0,0,0-13.43,12.15l-5.93,56.42H326.39a6.41,6.41,0,0,0-6.4,6.41v8.54a6.4,6.4,0,0,0,6.4,6.4h51.32a7.87,7.87,0,0,0,7.84-7.05l6.72-63.94a10.74,10.74,0,0,0,10.5-10.05A8.71,8.71,0,0,0,393.94,194.69Z"/><polygon class="cls-11" points="282.42 325.82 285.75 347.58 292.62 347 291.66 325.03 282.42 325.82"/><path class="cls-7" d="M292.86,338.49s.33,5.61,1.68,8.41,3.22,6.52-1.35,6.93c-2.7.25-7.42,1.36-12.59,1.86-3.57.35-8.46,0-8.63-1.88-.2-2.2,12.46-6.79,12.41-8.89s-.62-5.75-.62-5.75Z"/><path class="cls-12" d="M292.86,338.49s.33,5.61,1.68,8.41,3.22,6.52-1.35,6.93c-2.7.25-7.42,1.36-12.59,1.86-3.57.35-8.46,0-8.63-1.88-.2-2.2,12.46-6.79,12.41-8.89s-.62-5.75-.62-5.75Z"/><path class="cls-9" d="M327.19,222.31l-1.86,15.49s-52.83,4.64-55.84,17.85C266.64,268.21,282.23,332,282.23,332l10.55-1.05s1.47-49.3-3.15-66.89c0,0,40.16-.3,53.55,0,6,.14,21.39-.07,17.58-17.57-4.34-20-8.93-24.15-8.93-24.15l-.16-8.76h-24Z"/><path class="cls-13" d="M327.19,222.31l-1.86,15.49s-52.83,4.64-55.84,17.85C266.64,268.21,282.23,332,282.23,332l10.55-1.05s1.47-49.3-3.15-66.89c0,0,40.16-.3,53.55,0,6,.14,21.39-.07,17.58-17.57-4.34-20-8.93-24.15-8.93-24.15l-.16-8.76h-24Z"/><path class="cls-9" d="M281.21,332.25l.88,2.58a1.11,1.11,0,0,0,1.15.74l9.21-.84a1.1,1.1,0,0,0,1-1l.17-2.68a1.1,1.1,0,0,0-1.21-1.16l-10.26.94A1.1,1.1,0,0,0,281.21,332.25Z"/><path class="cls-14" d="M281.21,332.25l.88,2.58a1.11,1.11,0,0,0,1.15.74l9.21-.84a1.1,1.1,0,0,0,1-1l.17-2.68a1.1,1.1,0,0,0-1.21-1.16l-10.26.94A1.1,1.1,0,0,0,281.21,332.25Z"/><polygon class="cls-11" points="302.66 325.39 304.13 347.35 311.02 347.35 311.94 325.39 302.66 325.39"/><path class="cls-7" d="M311.81,340.7s-.18,5.62.92,8.53,2.63,6.78-2,6.78c-2.7,0-7.49.07-12.6-.31-3.58-.27-8.53.32-8.53-1.61,0-2.2,13.39-5.77,13.52-7.87s0-5.64,0-5.64Z"/><path class="cls-9" d="M335.46,222.31l-1.69,15.49s-32.86,4.46-38.13,12.34,7.11,85.31,7.11,85.31h9.19c6.56-43.05,3.15-71.49,3.15-71.49H356.3c26.25,0,2.89-41.65,2.89-41.65l.1-9.19L335,214.52Z"/><path class="cls-15" d="M335.46,222.31l-1.69,15.49s-32.86,4.46-38.13,12.34,7.11,85.31,7.11,85.31h9.19c6.56-43.05,3.15-71.49,3.15-71.49H356.3c26.25,0,2.89-41.65,2.89-41.65l.1-9.19L335,214.52Z"/><path class="cls-9" d="M301.07,333.94l.69,2.84a1,1,0,0,0,1,.77h9.15a1,1,0,0,0,1-.79l.61-2.84a1,1,0,0,0-1-1.22H302.06A1,1,0,0,0,301.07,333.94Z"/><path class="cls-14" d="M301.07,333.94l.69,2.84a1,1,0,0,0,1,.77h9.15a1,1,0,0,0,1-.79l.61-2.84a1,1,0,0,0-1-1.22H302.06A1,1,0,0,0,301.07,333.94Z"/><path class="cls-11" d="M288.27,213.49l-7.44,1.45-7-2.05a5.72,5.72,0,0,0-5.2,2h0a6.74,6.74,0,0,0-1.56,4.33v.27h14.39l7.81-1.05Z"/><path class="cls-9" d="M328.47,170.46a1.74,1.74,0,0,0-3-1.14c-2.4,2.36-5.85,5.13-7.46,20-2.07,19.14-34,23.9-34,23.9l1.52,7s23.52.81,33.26-9.35C331.39,197.8,329.55,178.22,328.47,170.46Z"/><path class="cls-13" d="M328.47,170.46a1.74,1.74,0,0,0-3-1.14c-2.4,2.36-5.85,5.13-7.46,20-2.07,19.14-34,23.9-34,23.9l1.52,7s23.52.81,33.26-9.35C331.39,197.8,329.55,178.22,328.47,170.46Z"/><path class="cls-7" d="M357.09,139.55c-2.89-19.37-19.2-12.39-19.2-12.39-10.54,3.8-7,16.89-7,24s-.9,9.57-.9,9.57c1.22-.27,2.35-.51,3.44-.72l.38-2.23.66,2c8.86-1.7,13.64-1.67,16.22-1.14a14.74,14.74,0,0,0,1.55-4.21s1.26.82,0,4.7c1.53.69,1.46,1.58,1.46,1.58S360,158.92,357.09,139.55Z"/><path class="cls-9" d="M367.11,168.21,329,167.75a3.76,3.76,0,0,0-3.75,3.1c-4.5,24.88-1.43,24-1.43,24l1.92,30.45H330a5.39,5.39,0,0,0,5.29-4.34l.43-2.14,1.13,3a5.39,5.39,0,0,0,5,3.49h19.45c-2.26-23.39,5.15-45.95,7.73-54.37A2.09,2.09,0,0,0,367.11,168.21Z"/><path class="cls-16" d="M367.11,168.21,329,167.75a3.76,3.76,0,0,0-3.75,3.1c-4.5,24.88-1.43,24-1.43,24l1.92,30.45H330a5.39,5.39,0,0,0,5.29-4.34l.43-2.14,1.13,3a5.39,5.39,0,0,0,5,3.49h19.45c-2.26-23.39,5.15-45.95,7.73-54.37A2.09,2.09,0,0,0,367.11,168.21Z"/><path class="cls-9" d="M283,213.11l1.41,7.38a1.08,1.08,0,0,0,1.1.87l1.42-.06a1.07,1.07,0,0,0,1-1.23l-1.17-7.86a1.07,1.07,0,0,0-1.39-.86l-1.67.54A1.08,1.08,0,0,0,283,213.11Z"/><path class="cls-14" d="M283,213.11l1.41,7.38a1.08,1.08,0,0,0,1.1.87l1.42-.06a1.07,1.07,0,0,0,1-1.23l-1.17-7.86a1.07,1.07,0,0,0-1.39-.86l-1.67.54A1.08,1.08,0,0,0,283,213.11Z"/><path class="cls-11" d="M349,149.71c-.56,5.1-.74,14.36,3.06,17.4,0,0-1.45,5.14-11.22,6.11-6.94-3.07-4.36-4.76-4.36-4.76,5.47-1.85,6-6,4.76-9.76Z"/><path class="cls-17" d="M348.14,155.38l-2-.53-2.48,1-2.44,2.83a10.54,10.54,0,0,1,.55,3C347.15,160.85,348.14,155.38,348.14,155.38Z"/><path class="cls-11" d="M352.58,138.43c.24,8.42.53,12-3.3,16.65-5.77,7-16.15,5.5-18.91-2.67-2.48-7.35-2.47-19.87,5.41-23.94a11.49,11.49,0,0,1,16.8,10Z"/><path class="cls-11" d="M355.16,144.87a6.14,6.14,0,0,1-2.62,3.9c-1.81,1.17-3.36-.28-3.4-2.33,0-1.83.87-4.66,2.94-5a2.77,2.77,0,0,1,3.14,2.36A2.85,2.85,0,0,1,355.16,144.87Z"/><path class="cls-18" d="M334.57,143.6a18.77,18.77,0,0,1-2,4.58,2.91,2.91,0,0,0,2.46.24Z"/><path class="cls-19" d="M340.22,138.79a.38.38,0,0,0,.15-.09.34.34,0,0,0,0-.47h0a3.87,3.87,0,0,0-3.44-1,.34.34,0,0,0-.24.41.33.33,0,0,0,.4.24,3.24,3.24,0,0,1,2.84.87A.32.32,0,0,0,340.22,138.79Z"/><path class="cls-19" d="M328.48,139.54a.38.38,0,0,1-.16-.06.33.33,0,0,1-.05-.47h0a3.92,3.92,0,0,1,3.27-1.51.34.34,0,0,1-.07.67,3.27,3.27,0,0,0-2.69,1.27A.31.31,0,0,1,328.48,139.54Z"/><path class="cls-19" d="M339.27,142c.07.68-.25,1.26-.7,1.31s-.85-.48-.91-1.17.25-1.26.69-1.3S339.21,141.36,339.27,142Z"/><path class="cls-19" d="M331.57,142.74c.07.68-.25,1.26-.69,1.31s-.85-.48-.92-1.16.25-1.26.69-1.31S331.52,142.05,331.57,142.74Z"/><path class="cls-19" d="M330.85,141.6l-1.67-.32S330.13,142.48,330.85,141.6Z"/><path class="cls-19" d="M338.55,140.9l-1.67-.32S337.83,141.78,338.55,140.9Z"/><path class="cls-7" d="M334.61,151.11a6.78,6.78,0,0,0,5.64-1.92s2.5,4.55-4.24,5.29A6,6,0,0,0,334.61,151.11Z"/><path class="cls-20" d="M335.21,151.16l.49,1.05s3.18,0,4.87-2.19a4.35,4.35,0,0,0-.32-.83A6.71,6.71,0,0,1,335.21,151.16Z"/><path class="cls-21" d="M336.47,154.41c3.3-.49,4.16-2,4.23-3.22C337.44,152,336.65,153.67,336.47,154.41Z"/><path class="cls-7" d="M337.89,131.75a8.15,8.15,0,0,1-6.06,4.2c-4.54.79-2.92,12.63-2.92,12.63s-9.81-23.92,11.55-22.21Z"/><path class="cls-7" d="M341,126.83a2.62,2.62,0,0,0-3.18,2.2c-.25,2,.17,4.51,3.4,5.54,5.71,1.84,5.18,7.88,5.18,7.88l1-4.48s.32,6.39,3.54,5.63,3.54-6.79,3.54-6.79l-5.32-8.14Z"/><path class="cls-9" d="M337.38,166.82a.43.43,0,0,1,.58.5c-.38,1.65-.71,5.23,3.64,5.23s8.26-3.55,9.93-5.26a1.84,1.84,0,0,1,2-.43l1.14.45a.89.89,0,0,1,.43,1.29c-1.93,3.2-8.85,13.4-14.44,5.13,0,0-3.25,5-5.25.52a8.34,8.34,0,0,1-.45-5.35,2.52,2.52,0,0,1,1.54-1.76Z"/><path class="cls-14" d="M337.38,166.82a.43.43,0,0,1,.58.5c-.38,1.65-.71,5.23,3.64,5.23s8.26-3.55,9.93-5.26a1.84,1.84,0,0,1,2-.43l1.14.45a.89.89,0,0,1,.43,1.29c-1.93,3.2-8.85,13.4-14.44,5.13,0,0-3.25,5-5.25.52a8.34,8.34,0,0,1-.45-5.35,2.52,2.52,0,0,1,1.54-1.76Z"/><path class="cls-7" d="M317.81,172.86a1.25,1.25,0,0,1,1.72.35,1.24,1.24,0,0,1-.35,1.71l-18.09,12a1.23,1.23,0,1,1-1.36-2.06Z"/><path class="cls-14" d="M317.81,172.86a1.25,1.25,0,0,1,1.72.35,1.24,1.24,0,0,1-.35,1.71l-18.09,12a1.23,1.23,0,1,1-1.36-2.06Z"/><path class="cls-7" d="M299.73,184.83a9,9,0,0,0-1.44,2,.39.39,0,0,0,.39.58,8.31,8.31,0,0,0,2.41-.54,1.23,1.23,0,0,0-1.36-2.06Z"/><path class="cls-22" d="M299.73,184.83a9,9,0,0,0-1.44,2,.39.39,0,0,0,.39.58,8.31,8.31,0,0,0,2.41-.54,1.23,1.23,0,0,0-1.36-2.06Z"/><path class="cls-11" d="M324.71,192.83l-7.89-5.53L315,179.72a4,4,0,0,0-3-3h0a4,4,0,0,0-4.64,2.51l-.61,1.65a4.06,4.06,0,0,0-.25,1.38v1.4a4,4,0,0,0,1.05,2.69l1.08,1.18a3.87,3.87,0,0,0,1,.8l4.68,2.61,7.39,7.38Z"/><path class="cls-9" d="M365.06,170.41a3.05,3.05,0,0,1,5.16-1c1.67,2.05,2.63,6-.22,13.76-5.69,15.45-14.75,27.59-26.1,27.59-13.46,0-27.08-15.59-27.08-15.59l4.72-5.55s13.67,9.27,22.79,9.27C349.54,198.93,358,188.81,365.06,170.41Z"/><path class="cls-13" d="M365.06,170.41a3.05,3.05,0,0,1,5.16-1c1.67,2.05,2.63,6-.22,13.76-5.69,15.45-14.75,27.59-26.1,27.59-13.46,0-27.08-15.59-27.08-15.59l4.72-5.55s13.67,9.27,22.79,9.27C349.54,198.93,358,188.81,365.06,170.41Z"/><path class="cls-9" d="M315.64,194.61l5.32-6.42a.55.55,0,0,1,.75-.1l2.28,1.67a.55.55,0,0,1,.1.8l-6,7.21a.56.56,0,0,1-.89-.05l-1.62-2.46A.54.54,0,0,1,315.64,194.61Z"/><path class="cls-14" d="M315.64,194.61l5.32-6.42a.55.55,0,0,1,.75-.1l2.28,1.67a.55.55,0,0,1,.1.8l-6,7.21a.56.56,0,0,1-.89-.05l-1.62-2.46A.54.54,0,0,1,315.64,194.61Z"/><path class="cls-7" d="M340.2,126.28h-1.87v.08a14,14,0,0,1,12.54,13.92h3.32A14,14,0,0,0,340.2,126.28Z"/><path class="cls-14" d="M340.2,126.28h-1.87v.08a14,14,0,0,1,12.54,13.92h3.32A14,14,0,0,0,340.2,126.28Z"/><ellipse class="cls-9" cx="352.58" cy="145.12" rx="4.54" ry="6.07"/><path class="cls-7" d="M357.64,145.12c0,2.71-.82,4-3,4s-3-1.28-3-4,.83-4,3-4S357.64,142.41,357.64,145.12Z"/><path class="cls-8" d="M357.64,145.12c0,2.71-.82,4-3,4s-3-1.28-3-4,.83-4,3-4S357.64,142.41,357.64,145.12Z"/><ellipse class="cls-7" cx="355.3" cy="145.12" rx="2.7" ry="3.61"/><ellipse class="cls-23" cx="355.3" cy="145.12" rx="2.7" ry="3.61"/></g><g id="Desk"><polygon class="cls-7" points="170.08 356.01 165.29 356.01 163.19 230.72 172.18 230.72 170.08 356.01"/><polygon class="cls-23" points="170.08 356.01 165.29 356.01 163.19 230.72 172.18 230.72 170.08 356.01"/><polygon class="cls-7" points="222.99 356.01 218.19 356.01 216.09 230.72 225.09 230.72 222.99 356.01"/><polygon class="cls-23" points="222.99 356.01 218.19 356.01 216.09 230.72 225.09 230.72 222.99 356.01"/><rect class="cls-7" x="167.68" y="228.61" width="90.44" height="9.8"/><rect class="cls-8" x="167.68" y="228.61" width="90.44" height="9.8"/><rect class="cls-7" x="258.13" y="228.61" width="53.04" height="9.8"/><rect class="cls-8" x="258.13" y="228.61" width="53.04" height="9.8"/><polygon class="cls-7" points="313.43 356.01 308.63 356.01 306.53 230.72 315.52 230.72 313.43 356.01"/><polygon class="cls-23" points="313.43 356.01 308.63 356.01 306.53 230.72 315.52 230.72 313.43 356.01"/><rect class="cls-7" x="245.09" y="222.31" width="75.92" height="8.4" rx="2.65"/><rect class="cls-7" x="155.74" y="222.31" width="101.17" height="8.4" rx="2.65"/><rect class="cls-13" x="155.74" y="222.31" width="101.17" height="8.4" rx="2.65"/><polygon class="cls-7" points="260.52 356.01 255.73 356.01 253.63 230.72 262.62 230.72 260.52 356.01"/><polygon class="cls-23" points="260.52 356.01 255.73 356.01 253.63 230.72 262.62 230.72 260.52 356.01"/><path class="cls-9" d="M258,222.33a1.4,1.4,0,0,1,0-2.8h38.15a1.4,1.4,0,0,1,0,2.8Z"/><path class="cls-9" d="M261.28,219.91l-5.08-36.14a2.87,2.87,0,0,0-2.75-2.41h-4.86v40.95h10.62A2,2,0,0,0,261.28,219.91Z"/><path class="cls-9" d="M257.11,222.31H214a2.85,2.85,0,0,1-2.74-2.4l-5.08-36.14a2,2,0,0,1,2.07-2.41h43.13a2.87,2.87,0,0,1,2.75,2.41l5.08,36.14A2,2,0,0,1,257.11,222.31Z"/><path class="cls-23" d="M257.11,222.31H214a2.85,2.85,0,0,1-2.74-2.4l-5.08-36.14a2,2,0,0,1,2.07-2.41h43.13a2.87,2.87,0,0,1,2.75,2.41l5.08,36.14A2,2,0,0,1,257.11,222.31Z"/><path class="cls-23" d="M234.77,200.86a1.87,1.87,0,0,1-1.89,2.2,2.63,2.63,0,0,1-2.51-2.2,1.87,1.87,0,0,1,1.89-2.2A2.61,2.61,0,0,1,234.77,200.86Z"/><path class="cls-9" d="M197.75,201.51H181.09a1.81,1.81,0,0,0-1.78,2.13l0,.15a4.63,4.63,0,0,0-2.52.08c-3,.9-3.09,3.58-2.19,6.58s2.44,5.21,5.45,4.31a5.11,5.11,0,0,0,1.37-.65,8.33,8.33,0,0,0,2.8,3.53v2.21h10.34v-2.21a8.32,8.32,0,0,0,3.32-5.26l1.62-8.74A1.81,1.81,0,0,0,197.75,201.51Zm-18.09,11.34c-2,.59-3-.85-3.58-2.83s-.53-3.74,1.44-4.33a2.93,2.93,0,0,1,2.2.17l1.17,6.31A3.12,3.12,0,0,1,179.66,212.85Z"/><path class="cls-8" d="M197.75,201.51H181.09a1.81,1.81,0,0,0-1.78,2.13l0,.15a4.63,4.63,0,0,0-2.52.08c-3,.9-3.09,3.58-2.19,6.58s2.44,5.21,5.45,4.31a5.11,5.11,0,0,0,1.37-.65,8.33,8.33,0,0,0,2.8,3.53v2.21h10.34v-2.21a8.32,8.32,0,0,0,3.32-5.26l1.62-8.74A1.81,1.81,0,0,0,197.75,201.51Zm-18.09,11.34c-2,.59-3-.85-3.58-2.83s-.53-3.74,1.44-4.33a2.93,2.93,0,0,1,2.2.17l1.17,6.31A3.12,3.12,0,0,1,179.66,212.85Z"/><path class="cls-9" d="M195,222.43H183.81a4.08,4.08,0,0,1-2-.5l-3.8-2.07a.77.77,0,0,1,.37-1.44h22a.77.77,0,0,1,.37,1.44l-3.8,2.07A4.08,4.08,0,0,1,195,222.43Z"/><path class="cls-16" d="M195,222.43H183.81a4.08,4.08,0,0,1-2-.5l-3.8-2.07a.77.77,0,0,1,.37-1.44h22a.77.77,0,0,1,.37,1.44l-3.8,2.07A4.08,4.08,0,0,1,195,222.43Z"/></g><g id="Concall"><rect class="cls-9" x="198.18" y="82.34" width="76.63" height="63.07" rx="5.24"/><rect class="cls-14" x="198.18" y="82.34" width="76.63" height="63.07" rx="5.24"/><path class="cls-19" d="M233.83,94.17s-5.7-2.91-8.6,3.5-10.23,2.56-7.15,15.57-10.08,8.6-3.75,18.1,16,3,21.3,3.17,15.54,3.5,18-2.42-1.75-7.91-1.84-11.12,5.24-10.9.92-14.38C244.81,100.19,247.92,90.59,233.83,94.17Z"/><ellipse class="cls-24" cx="235.63" cy="111.37" rx="12.42" ry="15.89"/><path class="cls-25" d="M236.47,112.1a16.05,16.05,0,0,0,1.49,4.2,2.6,2.6,0,0,1-2.2,0Z"/><path class="cls-19" d="M231,112.15c0,.58.23,1.07.61,1.09s.71-.42.75-1-.24-1.06-.61-1.09S231,111.58,231,112.15Z"/><path class="cls-19" d="M228.93,110.12l-.16-.05a.36.36,0,0,1,0-.48,3.44,3.44,0,0,1,2.86-1.22.34.34,0,0,1-.09.68h0a2.7,2.7,0,0,0-2.25,1A.38.38,0,0,1,228.93,110.12Z"/><path class="cls-19" d="M241.37,112.15c0,.58-.24,1.07-.62,1.09s-.71-.42-.75-1,.24-1.06.62-1.09S241.33,111.58,241.37,112.15Z"/><path class="cls-19" d="M243.43,110.12l.17-.05a.36.36,0,0,0,0-.48,3.43,3.43,0,0,0-2.86-1.22.34.34,0,0,0,.1.68h0a2.71,2.71,0,0,1,2.25,1A.35.35,0,0,0,243.43,110.12Z"/><path class="cls-19" d="M236.48,121a6,6,0,0,0,1-.09.19.19,0,0,0,.15-.21h0a.18.18,0,0,0-.21-.14,5,5,0,0,1-4.28-1.2.18.18,0,0,0-.27.25A5.13,5.13,0,0,0,236.48,121Z"/><path class="cls-26" d="M234.47,137.66a30.59,30.59,0,0,0,14.31-3.79,26.84,26.84,0,0,0-4.83-.46,16.7,16.7,0,0,1-8.55,2.06c-5.38,0-8.28-2.06-8.28-2.06a30,30,0,0,0-3.57.21C225.12,135.17,228.55,137.66,234.47,137.66Z"/><path class="cls-24" d="M242.54,135.19l2.27-1.44a7.41,7.41,0,0,1-3.23-1.32c-2.93-2.2-1.34-7.79-1.34-7.79h-8.41c-.2,3.36-.11,6.32-2,7.71a6.75,6.75,0,0,1-3.88,1.4l3,1.78c-.19.43,2,1.22,2,1.22l8.35.46,1.6-1S243,135.81,242.54,135.19Z"/><path class="cls-9" d="M227.12,133.41s2.9,2.06,8.28,2.06a16.7,16.7,0,0,0,8.55-2.06s16.67-.34,16.67,12H212.45S210.29,133.41,227.12,133.41Z"/><path class="cls-19" d="M222.53,108.36s.55,5.34,2.3,5.17.52-8.42,3.82-9,5.18-1.32,5.31-3.38,5.25-.62,4.56-3.25a7.69,7.69,0,0,1,3.94,3.94c1.43,3.06,1.83,1.5,2.88,3.62s2,8.42,3.68,3.82-2.63-8.44-2.63-8.44l-3.81-4.5L239,95.49,236,94.86h-4.09l-2.74.63-3.91,4.18-2.4,4.13Z"/><path class="cls-24" d="M224.63,112.17c.94,1.82.76,3.91-.4,4.66s-2.87-.11-3.8-1.93-.76-3.92.4-4.67S223.7,110.34,224.63,112.17Z"/><path class="cls-24" d="M245.94,112.17c-.94,1.82-.75,3.91.41,4.66s2.86-.11,3.8-1.93.76-3.92-.41-4.67S246.88,110.34,245.94,112.17Z"/><path class="cls-20" d="M222.85,113.56a1,1,0,0,0-.73,1.17l.51,3.28a.33.33,0,0,0,.38.27h0a.33.33,0,0,0,.27-.38l-.36-2.27h.21a1.05,1.05,0,0,0-.32-2.06Z"/><path class="cls-20" d="M248.32,113.56a1,1,0,0,1,.73,1.17l-.52,3.28a.33.33,0,0,1-.38.27h0a.34.34,0,0,1-.28-.38l.36-2.27H248a1.05,1.05,0,0,1,.33-2.06Z"/><circle class="cls-9" cx="273.79" cy="82.33" r="9.01"/><path class="cls-20" d="M268.6,87.52h0a.77.77,0,0,1,0-1.07l9.32-9.31a.75.75,0,0,1,1.06,0h0a.75.75,0,0,1,0,1.06l-9.31,9.32A.77.77,0,0,1,268.6,87.52Z"/><path class="cls-20" d="M276.76,87.7h-2.63v-2a3.14,3.14,0,0,0,2.8-3.12V81.56a.16.16,0,0,0-.17-.17h-.42a.17.17,0,0,0-.18.17.18.18,0,0,0,.18.17h.25v.89a2.8,2.8,0,0,1-5.6,0v-.89h.26a.18.18,0,0,0,.17-.17.17.17,0,0,0-.17-.17h-.43a.17.17,0,0,0-.17.17v1.06a3.15,3.15,0,0,0,2.8,3.12v2h-2.63a.34.34,0,0,0-.34.34v.35h6.62V88A.34.34,0,0,0,276.76,87.7Z"/><path class="cls-20" d="M271.68,82.62a2.12,2.12,0,0,0,4.23,0V78.39a2.12,2.12,0,1,0-4.23,0Z"/></g><g id="Video"><rect class="cls-9" x="76.11" y="106.37" width="109.52" height="84.43" rx="5.24"/><path class="cls-7" d="M124.22,113.47s-5.08-1.55-6.21,9.35-8.93,14.52-.65,18.52,16.28-.37,19.53,0,9.12-1.75,8.75-7.12-9.94-21-9.94-21Z"/><path class="cls-7" d="M165.63,161.45c-1.79,6-6.93,21.89-10.86,21.35-4.83-.67-8.16-18-8.16-18l1.33-21s5.33,0,7.67,26.83l5.64-12.13Z"/><path class="cls-27" d="M161.73,158.68l2-4.37,3.14-2.57,1.7-1.83a3,3,0,0,1,3.47-.67l1,.47a3,3,0,0,1,1.71,3.13l-.53,3.81-8.5,2.75s-.24.85-.65,2.23Z"/><polygon class="cls-7" points="160.93 157.14 166.89 161.23 166.43 163.48 159.84 158.81 160.93 157.14"/><polygon class="cls-13" points="160.93 157.14 166.89 161.23 166.43 163.48 159.84 158.81 160.93 157.14"/><path class="cls-7" d="M115.52,190.8s-.91-23.83-8.08-45a112.9,112.9,0,0,1,40.5-2s3.33,15.17-.67,47Z"/><path class="cls-13" d="M115.52,190.8s-.91-23.83-8.08-45a112.9,112.9,0,0,1,40.5-2s3.33,15.17-.67,47Z"/><path class="cls-27" d="M120.58,177.48c1.21-.46,1.92-.76,1.92-.76l5.38-2.5,4-3.8a2.34,2.34,0,0,0-.25-3.59L129.1,165a2.35,2.35,0,0,0-3.33.6l-4.52,6.73s-1,.29-2.62.69Z"/><path class="cls-7" d="M120.68,178.09c-5.86,2.22-23.42,8.27-28.7,3.5-6.37-5.75,15.46-35.79,15.46-35.79,5.83,6.58,3.73,13.39,3.73,13.39S99.94,171,101,174c.93,2.6,12.47,0,17.75-1.31Z"/><polygon class="cls-7" points="119.44 171.94 121.94 178.27 119.94 179.44 117.36 171.94 119.44 171.94"/><polygon class="cls-13" points="119.44 171.94 121.94 178.27 119.94 179.44 117.36 171.94 119.44 171.94"/><path class="cls-27" d="M134.67,142.85h-1.86a12,12,0,0,1,.51-5.65l-7.3-7.45c.37,3.41.53,9.85-1.06,13.39l-2.84.23c.46,1.35,2.22,4.75,8.28,4.75S135.34,144.31,134.67,142.85Z"/><path class="cls-17" d="M127.39,132.5l-.84,2.25a12.14,12.14,0,0,0,6.14,5.67,14.5,14.5,0,0,1,.63-3.21l-4.84-4.94Z"/><path class="cls-27" d="M122.3,124.19c1.77,6.75,2.37,9.65,6.51,12.47,6.22,4.25,14.12.61,14.41-6.53.27-6.42-2.66-16.37-9.88-17.78a9.52,9.52,0,0,0-11,11.84Z"/><path class="cls-27" d="M121.75,129.91a5.08,5.08,0,0,0,3,2.49c1.71.51,2.6-1,2.15-2.64-.4-1.47-1.77-3.51-3.51-3.31a2.3,2.3,0,0,0-1.94,2.61A2.34,2.34,0,0,0,121.75,129.91Z"/><path class="cls-18" d="M137.84,124.11a15.23,15.23,0,0,0,2.67,3.16,2.39,2.39,0,0,1-1.9.77Z"/><path class="cls-19" d="M131.83,121.58a.23.23,0,0,1-.14,0,.27.27,0,0,1-.09-.38h0a3.21,3.21,0,0,1,2.5-1.62.29.29,0,0,1,.29.27.28.28,0,0,1-.26.28,2.71,2.71,0,0,0-2.06,1.36A.28.28,0,0,1,131.83,121.58Z"/><path class="cls-19" d="M138.45,118.7a.37.37,0,0,1-.07-.12.29.29,0,0,1,.19-.35h0a3.23,3.23,0,0,1,2.94.51.29.29,0,0,1,0,.39.27.27,0,0,1-.39,0,2.74,2.74,0,0,0-2.43-.4A.29.29,0,0,1,138.45,118.7Z"/><path class="cls-19" d="M133.73,124c.11.56.49,1,.86.88s.57-.58.45-1.14-.49-.94-.85-.87S133.62,123.4,133.73,124Z"/><path class="cls-19" d="M140,122.73c.1.55.49.94.85.87s.57-.57.46-1.13-.49-1-.85-.88S139.9,122.17,140,122.73Z"/><path class="cls-19" d="M140.32,121.65l1.26-.64S141.1,122.18,140.32,121.65Z"/><path class="cls-19" d="M134,122.89l1.25-.65S134.81,123.42,134,122.89Z"/><path class="cls-19" d="M139.22,129.82a27,27,0,0,0-4.66.14,2.85,2.85,0,0,0,3.09,1.42C139.4,131.22,139.22,129.82,139.22,129.82Z"/><path class="cls-21" d="M136.76,130.72a3.53,3.53,0,0,1,2,.28,1.84,1.84,0,0,1-1.06.37,3.45,3.45,0,0,1-2-.28A2,2,0,0,1,136.76,130.72Z"/><path class="cls-20" d="M139.06,129.8a.64.64,0,0,1-.48.51,20.57,20.57,0,0,1-3,0,1,1,0,0,1-.82-.38A31.43,31.43,0,0,1,139.06,129.8Z"/><path class="cls-7" d="M124.22,129.47s3-2.52,2.33-7.89,6.13-.36,7.49-4.86,7.22,4.62,10.1-.88-10.26-6.83-11.57-5.25S113.3,109.59,124.22,129.47Z"/><rect class="cls-20" x="82.56" y="174.09" width="96.61" height="9.28" rx="2.38"/><polygon class="cls-7" points="94.66 181.05 94.66 176.41 97.56 178.73 94.66 181.05"/><polygon class="cls-7" points="102.23 180.1 103.5 178.76 102.23 177.41 102.23 180.1"/><polygon class="cls-7" points="103.5 177.45 103.5 178.76 103.5 180.06 104.07 180.06 104.07 177.45 103.5 177.45"/><polygon class="cls-7" points="89.98 177.41 88.72 178.76 89.98 180.1 89.98 177.41"/><polygon class="cls-7" points="88.72 180.06 88.72 178.76 88.72 177.45 88.14 177.45 88.14 180.06 88.72 180.06"/><rect class="cls-7" x="112.92" y="178.08" width="61.77" height="1.36"/><rect class="cls-9" x="139.98" y="175.69" width="2.2" height="6.08"/></g><g id="Wifi_Icon" data-name="Wifi Icon"><circle class="cls-9" cx="311.03" cy="99.2" r="23.41" transform="translate(143.02 379.12) rotate(-76.72)"/><circle class="cls-23" cx="311.03" cy="99.2" r="23.41" transform="translate(143.02 379.12) rotate(-76.72)"/><g class="cls-28"><path class="cls-9" d="M306.3,107.14a6.81,6.81,0,0,1,9.46,0c1.27,1.18,3.19-.72,1.91-1.91a9.59,9.59,0,0,0-13.28,0c-1.28,1.19.63,3.09,1.91,1.91Z"/><path class="cls-9" d="M310.11,111a1.3,1.3,0,0,1,1.83,0c1.28,1.17,3.19-.73,1.91-1.91a4.07,4.07,0,0,0-5.65,0c-1.28,1.18.64,3.08,1.91,1.91Z"/><path class="cls-9" d="M301.28,102.13a14,14,0,0,1,19.49,0c1.28,1.17,3.19-.73,1.91-1.91a16.79,16.79,0,0,0-23.31,0c-1.28,1.18.64,3.08,1.91,1.91Z"/><path class="cls-9" d="M296.71,97.55a20.57,20.57,0,0,1,28.64,0c1.27,1.19,3.18-.72,1.91-1.91a23.33,23.33,0,0,0-32.46,0c-1.27,1.19.64,3.1,1.91,1.91Z"/></g></g><g id="Webcam_Icon" data-name="Webcam Icon"><circle class="cls-9" cx="124.6" cy="222.31" r="24.08"/><circle class="cls-23" cx="124.6" cy="222.31" r="24.08"/><polygon class="cls-9" points="119.36 214.65 119.36 220.87 111.88 215.39 111.88 229.24 119.36 223.76 119.36 229.98 137.31 229.98 137.31 214.65 119.36 214.65"/></g><g id="Mic_Icon" data-name="Mic Icon"><circle class="cls-9" cx="389.26" cy="128.11" r="20.84" transform="translate(175.14 477.52) rotate(-76.72)"/><circle class="cls-23" cx="389.26" cy="128.11" r="20.84" transform="translate(175.14 477.52) rotate(-76.72)"/><path class="cls-9" d="M395.32,139.08H390v-4a6.42,6.42,0,0,0,5.71-6.37v-2.16a.35.35,0,0,0-.35-.35h-.87a.35.35,0,0,0,0,.7H395v1.81a5.71,5.71,0,0,1-11.42,0v-1.81h.52a.35.35,0,1,0,0-.7h-.87a.35.35,0,0,0-.35.35v2.16a6.41,6.41,0,0,0,5.71,6.37v4H383.2a.7.7,0,0,0-.7.7v.69H396v-.69A.7.7,0,0,0,395.32,139.08Z"/><path class="cls-9" d="M389.26,133a4.33,4.33,0,0,0,4.32-4.32h-8.64A4.32,4.32,0,0,0,389.26,133Z"/><path class="cls-9" d="M393.58,120.07a4.32,4.32,0,1,0-8.64,0v7.86h8.64Z"/></g></g></svg>