<svg width="284" height="310" viewBox="0 0 284 310" fill="none" xmlns="http://www.w3.org/2000/svg">
<g clip-path="url(#clip0_189_187)">
<rect width="284" height="310" fill="white"/>
<rect x="-11.6055" width="318.14" height="373.719" fill="#202125"/>
<path d="M155.512 76.1472C134.241 75.041 121.3 75.2189 97.4413 76.1472C89.2886 79.8169 88.554 83.1393 87.2969 89.0905V178.996C101.007 164.819 133.577 143.9 130.107 147.097C128.512 148.565 114.81 161.915 102.382 178.996C91.388 189.162 79.6768 234.618 100.94 234.618H135.573V195.437C184.122 198.483 204.915 169.085 207.637 135.792C206.368 118.294 203.399 109.325 192.026 95.5184C179.655 83.187 171.486 79.3825 155.512 76.1472Z" fill="#F8F8F8"/>
<path d="M166.512 125.652C167.488 122.814 138.671 128.654 121.586 134.789C126.764 138.393 128.749 141.025 131.801 146.049C133.784 150.768 134.581 153.695 135.799 159.156C152.965 145.909 165.536 128.489 166.512 125.652Z" fill="#202125"/>
</g>
<defs>
<clipPath id="clip0_189_187">
<rect width="284" height="310" fill="white"/>
</clipPath>
</defs>
</svg>
