<svg xmlns="http://www.w3.org/2000/svg" viewBox="0 0 500 368.76"><defs><style>.cls-1{fill:#ebebeb;}.cls-2{fill:#e0e0e0;}.cls-10,.cls-15,.cls-16,.cls-20,.cls-25,.cls-28,.cls-3,.cls-33,.cls-6{fill:#fff;}.cls-4{fill:#f5f5f5;}.cls-5{fill:#407bff;}.cls-18,.cls-19,.cls-6{opacity:0.4;}.cls-7{fill:#7f3e3b;}.cls-8{fill:#263238;}.cls-15,.cls-9{opacity:0.3;}.cls-10,.cls-14{opacity:0.6;}.cls-11,.cls-33{opacity:0.1;}.cls-12{fill:#630f0f;}.cls-13{fill:#2e353a;}.cls-16{opacity:0.7;}.cls-17,.cls-21,.cls-25,.cls-31,.cls-34{opacity:0.2;}.cls-20{opacity:0.8;}.cls-22{fill:#ce7a63;}.cls-23{opacity:0.5;}.cls-24{fill:#ba4d3c;}.cls-26,.cls-28{opacity:0.9;}.cls-27{fill:#ff8b7b;}.cls-29{fill:#ff5652;}.cls-30{fill:#ffb573;}.cls-31,.cls-34{isolation:isolate;}.cls-32{fill:#ed893e;}</style></defs><g id="Layer_2" data-name="Layer 2"><g id="Background_Complete" data-name="Background Complete"><rect class="cls-1" x="416.78" y="343.54" width="33.12" height="0.25"/><rect class="cls-1" x="322.53" y="346.26" width="8.69" height="0.25"/><rect class="cls-1" x="396.59" y="334.26" width="19.19" height="0.25"/><rect class="cls-1" x="52.46" y="335.94" width="43.19" height="0.25"/><rect class="cls-1" x="104.56" y="335.94" width="6.33" height="0.25"/><rect class="cls-1" x="131.47" y="340.16" width="93.68" height="0.25"/><path class="cls-1" d="M238.4,282.85H45.3a5.71,5.71,0,0,1-5.71-5.71V5.71A5.71,5.71,0,0,1,45.3,0H238.4a5.71,5.71,0,0,1,5.71,5.71V277.14A5.71,5.71,0,0,1,238.4,282.85ZM45.3.25a5.47,5.47,0,0,0-5.46,5.46V277.14a5.47,5.47,0,0,0,5.46,5.46H238.4a5.47,5.47,0,0,0,5.46-5.46V5.71A5.47,5.47,0,0,0,238.4.25Z"/><path class="cls-1" d="M454.7,282.85H261.6a5.71,5.71,0,0,1-5.71-5.71V5.71A5.71,5.71,0,0,1,261.6,0H454.7a5.71,5.71,0,0,1,5.71,5.71V277.14A5.71,5.71,0,0,1,454.7,282.85ZM261.6.25a5.47,5.47,0,0,0-5.46,5.46V277.14a5.47,5.47,0,0,0,5.46,5.46H454.7a5.47,5.47,0,0,0,5.46-5.46V5.71A5.47,5.47,0,0,0,454.7.25Z"/><rect class="cls-1" y="327.45" width="500" height="0.25"/><path class="cls-2" d="M406.78,109.86H367.24a6.79,6.79,0,0,0-6.8,6.8v25.47a6.8,6.8,0,0,0,6.8,6.81h11.37l5.08,6.64a4.19,4.19,0,0,0,6.64,0l5.08-6.64h11.37a6.8,6.8,0,0,0,6.8-6.81V116.66A6.79,6.79,0,0,0,406.78,109.86Z"/><path class="cls-3" d="M378.51,132.12a8.51,8.51,0,0,1-2.83-6,5.11,5.11,0,0,1,5.44-5.4c3.06,0,4.1,1.42,5.89,3.47,1.79-2,2.83-3.47,5.89-3.47a5.11,5.11,0,0,1,5.44,5.4,8.51,8.51,0,0,1-2.83,6l-8.5,8.46Z"/><path class="cls-2" d="M100.86,310.06a10,10,0,0,1-3.34-7,6,6,0,0,1,6.41-6.37c3.6,0,4.83,1.67,6.94,4.08,2.11-2.41,3.34-4.08,6.94-4.08a6,6,0,0,1,6.41,6.37,10,10,0,0,1-3.34,7l-10,10Z"/><path class="cls-1" d="M123.47,321.31a6.09,6.09,0,0,1-2-4.29,3.68,3.68,0,0,1,3.92-3.89c2.2,0,3,1,4.24,2.49,1.29-1.47,2-2.49,4.24-2.49a3.68,3.68,0,0,1,3.92,3.89,6.09,6.09,0,0,1-2,4.29l-6.12,6.1Z"/><path class="cls-4" d="M380.22,37.33H334.86a7.81,7.81,0,0,0-7.81,7.81V74.35a7.81,7.81,0,0,0,7.81,7.81h13.05l5.82,7.62a4.8,4.8,0,0,0,7.62,0l5.83-7.62h13A7.81,7.81,0,0,0,388,74.35V45.14A7.81,7.81,0,0,0,380.22,37.33Z"/><polygon class="cls-2" points="343.3 71.49 348.44 71.49 348.44 53.22 342.44 53.22 343.3 71.49"/><path class="cls-2" d="M372.27,56.08c-.26-.81-1.08-2.51-1.86-2.86-2.25-1-7.18-.68-11.54-.11.18-.35.33-.66.42-.89a13.08,13.08,0,0,0,.91-4.12c-.07-1-.52-3.11-1.33-3.63a2.33,2.33,0,0,0-2.06,0c-.87.91-.27,3.76-.61,5a18.18,18.18,0,0,1-3,4.57c-1.53.29-2.5.5-2.5.5V70.63s13.17,3.59,17.41,2.43c1.63-.44,2.4-3.27,3-4.85C372.2,65.37,373.2,59,372.27,56.08Z"/><path class="cls-1" d="M265.5,62.7a11.43,11.43,0,0,0-11.39-10.5h-8.22A11.43,11.43,0,0,0,234.5,62.7l-.69,7h32.38Z"/><circle class="cls-1" cx="250" cy="44.48" r="7.71"/><path class="cls-2" d="M97,170.19a5.16,5.16,0,0,0-3.26,1.15l-6.19-5a5.07,5.07,0,0,0,.56-2.33,5.14,5.14,0,1,0-1.9,4l6.19,5a5.11,5.11,0,0,0,0,4.65l-6.19,5a5.16,5.16,0,1,0,1.9,4,5,5,0,0,0-.56-2.32l6.19-5A5.16,5.16,0,1,0,97,170.19Z"/></g><g id="Shadow"><ellipse id="_Path_" data-name="&lt;Path&gt;" class="cls-4" cx="250" cy="357.44" rx="193.89" ry="11.32"/></g><g id="Character_4" data-name="Character 4"><path class="cls-5" d="M346.86,217.14h75.69a10.52,10.52,0,0,1,10.52,10.52v57.53a10.52,10.52,0,0,1-10.52,10.52H365.4A18.6,18.6,0,0,1,347,312c-.42,0-.83,0-1.25-.06,3-3.9,5.37-9.55,6.95-16.27h-5.79a10.52,10.52,0,0,1-10.52-10.52V227.66A10.52,10.52,0,0,1,346.86,217.14Z"/><path class="cls-6" d="M346.86,217.14h75.69a10.52,10.52,0,0,1,10.52,10.52v57.53a10.52,10.52,0,0,1-10.52,10.52H365.4A18.6,18.6,0,0,1,347,312c-.42,0-.83,0-1.25-.06,3-3.9,5.37-9.55,6.95-16.27h-5.79a10.52,10.52,0,0,1-10.52-10.52V227.66A10.52,10.52,0,0,1,346.86,217.14Z"/><path class="cls-7" d="M343.28,239.5l-3.74-6.32,2.34-4a2,2,0,0,0,.14-1.73l-.18-.46a2,2,0,0,0-1.83-1.3l-3.67-.09a2,2,0,0,0-1.83,1.05l-.74,1.36a2.37,2.37,0,0,0-.07,2.14l1.58,3.42,2.93,7.84Z"/><path class="cls-5" d="M373.07,238.39,351.7,254l-10-18.78-5.7,2.47s8.79,28.46,13.9,27.31,19.53-8.28,24.22-13.17c2.37-2.47,4.17-7,1.83-12.6A1.88,1.88,0,0,0,373.07,238.39Z"/><path class="cls-8" d="M381.05,201.37s-7.54,2-4.05,11.09c0,0,3.76-1,4.37-3.43s1.19-5.84,1.19-5.84Z"/><path class="cls-9" d="M381.05,201.37s-7.54,2-4.05,11.09c0,0,3.76-1,4.37-3.43s1.19-5.84,1.19-5.84Z"/><polygon class="cls-7" points="398.88 237.5 385.1 237.04 379.4 237.87 378.62 248.26 389.73 251.95 401.58 249.59 402.2 239.58 401.35 237.58 398.88 237.5"/><path class="cls-5" d="M380.12,295.71h19.5c.19-6.87,1.21-42.54,1-42.33s2.06-7.6,2.06-7.6v-3.16l-2.06-3.41s-4.42,6.75-11.7,6.42c-6.9-.32-8.09-7.21-8.09-7.21L380,249l-.87,25.49,1.11,10.81Z"/><path class="cls-10" d="M380.12,295.71h19.5c.19-6.87,1.21-42.54,1-42.33s2.06-7.6,2.06-7.6v-3.16l-2.06-3.41s-4.42,6.75-11.7,6.42c-6.9-.32-8.09-7.21-8.09-7.21L380,249l-.87,25.49,1.11,10.81Z"/><path class="cls-8" d="M372.36,295.71h10.56c2.08-13.76,2.36-38.92,2.36-38.92a130.65,130.65,0,0,1-2.95-14.63c-.64-5.77,7.6-5,14.8-4s-5.6,19.15-5.6,19.15-.91,24.62,1.2,38.45h26c-1.3-3.67-5.14-14.94-6-22.93-1.11-9.66,5.54-23.75,4.59-30.62s-23.74-5.48-23.74-5.48-14.59-.09-17.84,0c-3.8.18-5.32,10.19-7.12,18.09s1.51,15.74,3.32,25.7A51,51,0,0,1,372.36,295.71Z"/><path class="cls-5" d="M384,236.65c4.74,0,9.63,0,9.63,0s2.91-.17,6.69-.09c1.51,1,3.5,3.42,1.92,8.48l-3.3,1.27.6,3.24s-3.8,6-8,8.31c0-.4,0-.63,0-.63s12.81-18.2,5.6-19.15-15.44-1.72-14.8,4a130.65,130.65,0,0,0,2.95,14.63s0,.09,0,.27c-2-1.81-3.75-5-5-8.82l1.35-3.74-3-1.64A8,8,0,0,1,384,236.65Z"/><path class="cls-7" d="M383.8,242.11a3.45,3.45,0,0,1,.3-3.3c5.42-1.84,4.92-5.9,3.67-9.68l8.73-8.9c-.51,4.74-.7,15.65,2.4,19.45v.86a11.86,11.86,0,0,1-11.65,4.34A4.54,4.54,0,0,1,383.8,242.11Z"/><path class="cls-11" d="M387.77,229.13l6.94-7.07,1.6.57c-.05.86-.08,1.79-.09,2.77-.88,1.8-3,4.33-7.92,5.6A18.71,18.71,0,0,0,387.77,229.13Z"/><path class="cls-7" d="M401,212.37c-2.11,8.07-2.83,11.53-7.78,14.91-7.44,5.08-16.89.73-17.24-7.81-.31-7.68,3.18-19.58,11.82-21.26A11.38,11.38,0,0,1,401,212.37Z"/><path class="cls-12" d="M381.77,214.45a18.38,18.38,0,0,1-3.2,3.78,2.87,2.87,0,0,0,2.27.92Z"/><path class="cls-8" d="M390.38,211.47a.32.32,0,0,0,.27-.49h0a3.88,3.88,0,0,0-3-1.94.34.34,0,0,0-.34.32.32.32,0,0,0,.31.34,3.25,3.25,0,0,1,2.46,1.63A.31.31,0,0,0,390.38,211.47Z"/><path class="cls-8" d="M377,209a.42.42,0,0,0,.16,0,3.23,3.23,0,0,1,2.93-.2.33.33,0,0,0,.45-.13h0a.33.33,0,0,0-.15-.45,3.87,3.87,0,0,0-3.56.2.33.33,0,0,0-.14.44.32.32,0,0,0,.31.18Z"/><path class="cls-8" d="M384.22,221.37a6.4,6.4,0,0,1-1.15-.11.2.2,0,0,1-.17-.23h0a.2.2,0,0,1,.23-.17,5.51,5.51,0,0,0,4.77-1.33.2.2,0,0,1,.29,0,.19.19,0,0,1,0,.28A5.71,5.71,0,0,1,384.22,221.37Z"/><path class="cls-8" d="M398.23,218.68a10.24,10.24,0,0,1-2.45-8.21s-3.25-3.32-3.09-6.88c0,0-1,2.84,0,4.86,0,0-8.43-.61-8.23-4.86,0,0-.56,2.14.71,3.24,0,0-7.49.32-6.47-3.56s6.88-5.78,6.88-5.78,5.59-4.75,13.32,3.64c0,0,9.1,5.69,2.65,15.16Z"/><path class="cls-7" d="M401.61,219.21a6.1,6.1,0,0,1-3.58,3c-2,.62-3.11-1.2-2.58-3.16.48-1.75,2.12-4.19,4.2-4a2.75,2.75,0,0,1,2.32,3.12A2.71,2.71,0,0,1,401.61,219.21Z"/><path class="cls-13" d="M387.84,213.3c-.08.69-.51,1.22-1,1.17s-.76-.64-.68-1.35.5-1.22.95-1.17S387.91,212.6,387.84,213.3Z"/><path class="cls-13" d="M380,212.47c-.07.7-.5,1.22-.95,1.18s-.77-.65-.7-1.35.5-1.22,1-1.18S380,211.77,380,212.47Z"/><path class="cls-13" d="M379.45,211.18l-1.62-.65S378.55,211.92,379.45,211.18Z"/><path class="cls-13" d="M387.34,212l-1.63-.66S386.44,212.75,387.34,212Z"/><path class="cls-5" d="M397.53,226a2.7,2.7,0,0,0,2-4.53l-.35.33a2.19,2.19,0,0,1,.58,1.5,2.23,2.23,0,1,1-2.22-2.22,2.18,2.18,0,0,1,.91.19l.19-.43a2.59,2.59,0,0,0-1.1-.24,2.7,2.7,0,1,0,0,5.4Z"/><g class="cls-14"><path class="cls-3" d="M397.53,226a2.7,2.7,0,0,0,2-4.53l-.35.33a2.19,2.19,0,0,1,.58,1.5,2.23,2.23,0,1,1-2.22-2.22,2.18,2.18,0,0,1,.91.19l.19-.43a2.59,2.59,0,0,0-1.1-.24,2.7,2.7,0,1,0,0,5.4Z"/></g><path class="cls-7" d="M395.67,266.8l-7.34.31-2.46-4a2,2,0,0,0-1.47-.94l-.48-.06a2,2,0,0,0-2,1l-1.82,3.19a2,2,0,0,0,.07,2.1l.85,1.3a2.37,2.37,0,0,0,1.86,1.07l3.75.22,8.3,1.11Z"/><path class="cls-5" d="M408.72,240l3.65,26.17H391.08l-.51,6.19s29.25,5.66,30.64.62,1.9-21.13-.2-27.58c-1.07-3.24-4.21-7-10.25-7.55A1.9,1.9,0,0,0,408.72,240Z"/></g><g id="Device"><path class="cls-8" d="M315.69,89.07H292.32L268.76,358.44h23.37a21.84,21.84,0,0,0,21.33-19.61l20.13-230.15A17.68,17.68,0,0,0,315.69,89.07Z"/><path class="cls-5" d="M330.17,116.08a2.09,2.09,0,0,1,2-1.88,1.7,1.7,0,0,1,1.72,1.88l-1.58,18A2.1,2.1,0,0,1,330.3,136a1.7,1.7,0,0,1-1.71-1.88Z"/><path class="cls-15" d="M330.17,116.08a2.09,2.09,0,0,1,2-1.88,1.7,1.7,0,0,1,1.72,1.88l-1.58,18A2.1,2.1,0,0,1,330.3,136a1.7,1.7,0,0,1-1.71-1.88Z"/><path class="cls-5" d="M287.34,358.44H191.05a17.69,17.69,0,0,1-17.9-19.61l20.14-230.15a21.82,21.82,0,0,1,21.33-19.61h96.29a17.69,17.69,0,0,1,17.9,19.61L308.67,338.83A21.84,21.84,0,0,1,287.34,358.44Z"/><path class="cls-5" d="M310.52,93.57h-25A3.63,3.63,0,0,0,282,96.41l-.17.78a8.88,8.88,0,0,1-8.5,7H249.55a7.13,7.13,0,0,1-7.28-7l0-.78a2.91,2.91,0,0,0-3-2.84h-25a16.82,16.82,0,0,0-16.43,15.11L177.65,338.83a13.63,13.63,0,0,0,13.79,15.11h96.3a16.82,16.82,0,0,0,16.43-15.11l20.14-230.15A13.63,13.63,0,0,0,310.52,93.57Z"/><path class="cls-16" d="M310.52,93.57h-25A3.63,3.63,0,0,0,282,96.41l-.17.78a8.88,8.88,0,0,1-8.5,7H249.55a7.13,7.13,0,0,1-7.28-7l0-.78a2.91,2.91,0,0,0-3-2.84h-25a16.82,16.82,0,0,0-16.43,15.11L177.65,338.83a13.63,13.63,0,0,0,13.79,15.11h96.3a16.82,16.82,0,0,0,16.43-15.11l20.14-230.15A13.63,13.63,0,0,0,310.52,93.57Z"/><g class="cls-17"><ellipse cx="254.41" cy="96.12" rx="2" ry="1.83" transform="translate(4.16 202.6) rotate(-43.75)"/><path d="M270.05,94.2h-6.56a2.14,2.14,0,0,0-2.08,1.92A1.73,1.73,0,0,0,263.16,98h6.56a2.14,2.14,0,0,0,2.08-1.91A1.73,1.73,0,0,0,270.05,94.2Z"/></g><polygon class="cls-5" points="208.67 104.1 210.69 104.1 210.87 102.08 208.84 102.08 208.67 104.1"/><polygon class="cls-5" points="212.9 102.08 212.72 104.1 214.74 104.1 214.92 102.08 215.1 100.05 213.07 100.05 212.9 102.08"/><polygon class="cls-5" points="217.3 98.03 217.12 100.05 216.94 102.08 216.77 104.1 218.79 104.1 218.97 102.08 219.15 100.05 219.32 98.03 217.3 98.03"/><path class="cls-5" d="M304.37,98.16l-.13,1.49h-1l-.26,3h1l-.13,1.48h8.91l.52-5.94Zm3.57,4.46h-3l.26-3h3Z"/><g class="cls-18"><path class="cls-3" d="M249.62,104.14,183.15,351.31a14,14,0,0,0,8.29,2.63h5.2l67.18-249.8Z"/><path class="cls-3" d="M310.52,93.57h-25A3.63,3.63,0,0,0,282,96.41l-.17.78a8.89,8.89,0,0,1-8.19,6.94L206.46,353.94h51.25l66.6-247.65A13.55,13.55,0,0,0,310.52,93.57Z"/></g></g><g id="Character_3" data-name="Character 3"><path class="cls-5" d="M209.91,160.65l-3-.65a1.36,1.36,0,0,1-1-1.81l4.19-10.95,4.79,1-3.41,11.42A1.36,1.36,0,0,1,209.91,160.65Z"/><path class="cls-5" d="M221.53,146.65h0a1.53,1.53,0,0,1-1.17-1.84l.4-1.87a1.55,1.55,0,0,1,1.84-1.18h0a1.55,1.55,0,0,1,1.18,1.84l-.41,1.87A1.55,1.55,0,0,1,221.53,146.65Z"/><path class="cls-5" d="M218.57,137.33s-11.4-1.3-15.39-3.35c-9.38-4.81-18.35-16.31-20.25-16.73-3.1-.67-7.32,6.67-9.44,16.39s-1.32,18.16,1.78,18.83c1.91.42,14.83-6.32,25.37-6.81C205.12,145.46,216,149,216,149Z"/><path class="cls-15" d="M218.57,137.33s-11.4-1.3-15.39-3.35c-9.38-4.81-18.35-16.31-20.25-16.73-3.1-.67-7.32,6.67-9.44,16.39s-1.32,18.16,1.78,18.83c1.91.42,14.83-6.32,25.37-6.81C205.12,145.46,216,149,216,149Z"/><path class="cls-5" d="M184.71,136.08c-2.11,9.73-6.34,17.07-9.44,16.39s-3.89-9.1-1.78-18.83,6.34-17.06,9.44-16.39S186.83,126.36,184.71,136.08Z"/><path class="cls-19" d="M184.71,136.08c-2.11,9.73-6.34,17.07-9.44,16.39s-3.89-9.1-1.78-18.83,6.34-17.06,9.44-16.39S186.83,126.36,184.71,136.08Z"/><path class="cls-8" d="M216.72,136l-5.29-1.15a2.53,2.53,0,0,0-3.06,2.11c-.19,1.32-.43,2.7-.73,4.1s-.66,2.75-1,4a2.54,2.54,0,0,0,1.91,3.19l6.27,1.37c3.76.81,6.47-1.83,7.23-5.62A6.85,6.85,0,0,0,216.72,136Z"/><path class="cls-8" d="M179.27,134.1l-.33,1.52a1.86,1.86,0,0,0,1.11,2.13l3.84,1.6c.3-1,.58-2.14.82-3.27s.45-2.23.62-3.31l-4.17-.14A1.87,1.87,0,0,0,179.27,134.1Z"/><path class="cls-20" d="M179.27,134.1l-.33,1.52a1.86,1.86,0,0,0,1.11,2.13l3.84,1.6c.3-1,.58-2.14.82-3.27s.45-2.23.62-3.31l-4.17-.14A1.87,1.87,0,0,0,179.27,134.1Z"/><path class="cls-21" d="M182.17,135.53c-.21,1-.44,1.9-.69,2.82l2.41,1c.3-1,.58-2.14.82-3.27s.45-2.23.62-3.31l-2.62-.09C182.56,133.62,182.38,134.56,182.17,135.53Z"/><path class="cls-8" d="M274.56,136.13a6.49,6.49,0,0,0,5.85-.63c3.07-2,8.83.52,7.09,8.71-3,14.08-9.26,24.18-5.2,28.45,0,0-13.52.61-11.52-11.32,1.5-9,11.67-19.12,9.22-21.15-.82-.67-2-.32-5.85-.32Z"/><path class="cls-5" d="M274.15,139.87a18.18,18.18,0,0,1,5.49.66,13.8,13.8,0,0,0,.72-5.65,30.34,30.34,0,0,0-5.8,1.25Z"/><path class="cls-8" d="M261.42,125.87s-5.62-1.61-1.91-5.23c4.84-4.74,11.72,4.12,11.72,4.12s16.13,7,2.82,23.4c0,0-4.81,8.6-5.81,5.26s5.68-12.85,5.68-12.85l-.4-8.49-1.85-3.32-5.81-3.31Z"/><path class="cls-22" d="M239.13,173.75a5.57,5.57,0,0,0-7.65-1.84l-.08.06c-1.75,1.06-3.61,2.26-5.45,3.36l-5.55,3.33q-3.9,2.29-7.84,4.44a51.21,51.21,0,0,1-.1-6c.07-2.34.24-4.73.42-7.13s.42-4.83.62-7.2v-.07a2.77,2.77,0,0,0-5.37-1.19c-.89,2.41-1.59,4.79-2.29,7.23s-1.23,4.9-1.7,7.44a45.78,45.78,0,0,0-.84,8,16.59,16.59,0,0,0,.65,5,7.92,7.92,0,0,0,2.4,3.74,6.86,6.86,0,0,0,3,1.47,7.47,7.47,0,0,0,2.92,0,3.5,3.5,0,0,0,.68-.2l.33-.13c2.13-.88,4.25-1.77,6.31-2.76s4.12-2,6.13-3.06,4-2.18,6-3.34,3.86-2.34,5.83-3.7A5.6,5.6,0,0,0,239.13,173.75Z"/><path class="cls-5" d="M244,166.46c3.37,6.79-1.48,12.68-10.37,22.12a26.67,26.67,0,0,1-9.21-14.81S234.7,165.29,244,166.46Z"/><path class="cls-21" d="M244.35,174.52c-3.29-2-7-2.91-9.57.37a40.1,40.1,0,0,1-6.92,7.07,28.38,28.38,0,0,0,5.8,6.62C239,182.94,242.82,178.57,244.35,174.52Z"/><path class="cls-22" d="M211,150l2.28,1.51a3.18,3.18,0,0,1,1.43,2.55l.18,4.81a6,6,0,0,1-2.32,4.93l-.95.72c-4-2.24-6.59-7.58-6.59-7.58l-.92-1.44a2.65,2.65,0,0,1,.73-3.7l2.82-1.86A3.09,3.09,0,0,1,211,150Z"/><path class="cls-8" d="M236.19,353.94c5.18-16,8.72-33.76,5.2-46.73,21.4-62.86,11.75-81.16,11.75-81.16l-25.47-9.29s-3.64,56.61-4.74,84c-.61,15.32-3.22,35.22-6.23,53.2Z"/><path class="cls-23" d="M249.4,249.3,244.23,241l-3.16,6.5a199.84,199.84,0,0,0,2.32,53.7,281.74,281.74,0,0,0,9.74-37.84Z"/><path class="cls-8" d="M251.84,353.94h19.31c2-16.62,2-34.51-3.9-46.47,9-65.79-4-81.91-4-81.91l-26.78-4.24s7.27,56.26,11.44,83.34C250.06,318.68,251.28,336.87,251.84,353.94Z"/><path class="cls-5" d="M232.08,179.1a111.28,111.28,0,0,0-2.4,14.78c-.86,7.24-1.49,14.41-2.32,26.38L263.62,226c.89-10.33,3.92-21.78,14.07-43.73a8.56,8.56,0,0,0-5.5-12.13c-1.41-.37-2.91-.74-4.46-1.06a117.16,117.16,0,0,0-16.47-2.61c-1.81-.12-3.7-.18-5.51-.22C239.21,166.13,233.29,172.74,232.08,179.1Z"/><path class="cls-22" d="M269.5,150.36c-2.27,5.07-5.56,14.5-2.68,18.58,0,0-4.9-1.55-16.59,3.35-2.39-4.91.13-6,.13-6,6.23-.46,7.1-4.81,7-9Z"/><path class="cls-3" d="M252.68,171.32a4.65,4.65,0,0,1,2.76,2.73,3.54,3.54,0,0,0,5,1.63c3-1.69,6.78-4.1,8.67-6.24A34.05,34.05,0,0,1,266.3,167S255.05,169.62,252.68,171.32Z"/><path class="cls-3" d="M249.43,170.23a5.24,5.24,0,0,0-2.36,1.05,1.13,1.13,0,0,1-1.74-1.26c1.25-3.54,3.41-4,3.41-4a4.55,4.55,0,0,1,3.24,0A3.8,3.8,0,0,0,249.43,170.23Z"/><path class="cls-21" d="M264.56,153.19l-7.16,4.09a16.19,16.19,0,0,1-.18,3c2.34,0,6-1.92,6.8-4.22A7.91,7.91,0,0,0,264.56,153.19Z"/><path class="cls-22" d="M275.71,140.45c-3,8.29-4,11.86-9.57,15.19-8.31,5-17.88.15-17.47-8.73.38-8,5.16-20.21,14.42-21.64A11.29,11.29,0,0,1,275.71,140.45Z"/><path class="cls-8" d="M264.56,140.14c-.22.71-.76,1.19-1.22,1.09s-.65-.77-.44-1.48.77-1.19,1.23-1.08S264.78,139.43,264.56,140.14Z"/><path class="cls-8" d="M255.71,137.77c-.22.71-.77,1.2-1.23,1.09s-.65-.77-.43-1.48.77-1.19,1.23-1.08S255.93,137.07,255.71,137.77Z"/><path class="cls-8" d="M255.47,136.39l-1.54-.89S254.39,137,255.47,136.39Z"/><path class="cls-24" d="M258.28,139.23a21.53,21.53,0,0,1-3.9,3.93,3,3,0,0,0,2.36,1.06Z"/><path class="cls-8" d="M267.25,136a.41.41,0,0,1-.28-.18,3.19,3.19,0,0,0-2.6-1.5.4.4,0,0,1-.42-.41.47.47,0,0,1,.45-.44,4,4,0,0,1,3.31,1.86.43.43,0,0,1-.15.59A.45.45,0,0,1,267.25,136Z"/><path class="cls-8" d="M253.81,131.84a.4.4,0,0,1-.22-.22.42.42,0,0,1,.27-.54,4.49,4.49,0,0,1,4,.24.4.4,0,0,1,.08.58.47.47,0,0,1-.61.11,3.61,3.61,0,0,0-3.18-.17A.44.44,0,0,1,253.81,131.84Z"/><path class="cls-8" d="M264.32,138.75l-1.53-.88S263.24,139.4,264.32,138.75Z"/><path class="cls-8" d="M231.34,206.36H222.7a1.94,1.94,0,0,1-1.8-1.48l-4-18.72a1.16,1.16,0,0,1,1.16-1.48h8.64a2,2,0,0,1,1.8,1.48l4,18.72A1.16,1.16,0,0,1,231.34,206.36Z"/><path class="cls-8" d="M230.34,206.36H221.7a1.94,1.94,0,0,1-1.8-1.48l-4-18.72a1.16,1.16,0,0,1,1.16-1.48h8.64a2,2,0,0,1,1.8,1.48l4,18.72A1.16,1.16,0,0,1,230.34,206.36Z"/><path class="cls-25" d="M230.34,206.36H221.7a1.94,1.94,0,0,1-1.8-1.48l-4-18.72a1.16,1.16,0,0,1,1.16-1.48h8.64a2,2,0,0,1,1.8,1.48l4,18.72A1.16,1.16,0,0,1,230.34,206.36Z"/><path class="cls-22" d="M227.24,195.33l2.68-.59a3.17,3.17,0,0,1,2.82.74l3.58,3.22a5.93,5.93,0,0,1,1.93,5.1l-.14,1.18c-4.37,1.29-10-.54-10-.54l-1.68-.34a2.64,2.64,0,0,1-2.15-3.09l.63-3.33A3.06,3.06,0,0,1,227.24,195.33Z"/><path class="cls-22" d="M273.33,175.85a5.57,5.57,0,0,0-6.06,5V181c-.1,1-.23,2.22-.36,3.35s-.29,2.3-.46,3.45c-.34,2.3-.75,4.59-1.21,6.85s-1,4.47-1.65,6.65c-.53,1.74-1.14,3.42-1.79,5.06a11.8,11.8,0,0,1-2.41-.15,55.74,55.74,0,0,1-7.64-1.7c-2.35-.73-4.72-1.59-7.09-2.49s-4.76-1.87-7.09-2.81l-.06,0a2.77,2.77,0,0,0-2.69,4.8c2.2,1.63,4.42,3,6.71,4.45s4.66,2.67,7.13,3.86a56.1,56.1,0,0,0,8.8,3,20.56,20.56,0,0,0,5,.72,10.78,10.78,0,0,0,3.34-.49A8.32,8.32,0,0,0,269.7,213a5.08,5.08,0,0,0,.48-.7l.1-.19a58,58,0,0,0,3.36-7.39,72.19,72.19,0,0,0,2.32-7.56c.65-2.53,1.15-5.08,1.56-7.65.19-1.28.36-2.56.51-3.85s.26-2.54.33-4A5.58,5.58,0,0,0,273.33,175.85Z"/><path class="cls-5" d="M275,171.43c6.18,4.38,6.48,10.92,3.14,23.44-4.47,2.24-15.33-.59-15.33-.59S266.23,174.84,275,171.43Z"/><path class="cls-8" d="M252.76,146.62s3-.59,11.15-.34c-1,2.44-2.88,4.38-7.09,4.25a3.82,3.82,0,0,1-4.06-3.56C252.76,146.85,252.75,146.73,252.76,146.62Z"/><path class="cls-24" d="M258.82,148.62a7.65,7.65,0,0,0-4.62,1.07,4.6,4.6,0,0,0,2.61.81,7.62,7.62,0,0,0,4.61-1.07A4.4,4.4,0,0,0,258.82,148.62Z"/><path class="cls-3" d="M253.13,146.56a1.7,1.7,0,0,0,1.25,1.26,45.39,45.39,0,0,0,7.28-.41,2.37,2.37,0,0,0,1.88-1.17A68.31,68.31,0,0,0,253.13,146.56Z"/><path class="cls-8" d="M263.16,124.72a11.25,11.25,0,0,0-1.55.35v.47a12.69,12.69,0,0,1,3.88.58c6.92,2.11,8,6,5.68,11.75-1.11,2.74-1.71,8.55-.43,9.64.33.28,1.33.24,2.63,0,.86-2,1.68-4.33,2.73-7.27A11.57,11.57,0,0,0,263.16,124.72Z"/><path class="cls-22" d="M276.5,148a7,7,0,0,1-4.95,2.15c-2.4,0-2.78-2.48-1.43-4.53,1.21-1.85,3.91-4.08,6-3.07S278.16,146.33,276.5,148Z"/><g class="cls-26"><path class="cls-3" d="M261.75,190.52c-16.84-1-24.44-4.14-27.47-5.9a1.85,1.85,0,0,1-.27-.19c-.87-.76.23-2.15,1.24-1.57,2.65,1.52,9.95,4.64,26.62,5.67a1,1,0,0,1,.94,1.05h0A1,1,0,0,1,261.75,190.52Z"/></g><g class="cls-26"><path class="cls-3" d="M260.87,200a1,1,0,0,1-1.05,1A74.16,74.16,0,0,1,232,194.53a1,1,0,0,1-.43-1.38h0a1,1,0,0,1,1.31-.42A73.58,73.58,0,0,0,259.92,199a1,1,0,0,1,.95,1Z"/></g><g class="cls-26"><path class="cls-3" d="M243.93,216.72c-7.8-1.53-11.81-2.56-13.5-3a1,1,0,0,1-.67-1.28h0a1,1,0,0,1,1.22-.65c1.62.46,5.62,1.5,13.33,3a1,1,0,0,1,.79,1.17h0A1,1,0,0,1,243.93,216.72Z"/></g><path class="cls-8" d="M261.73,128.09a1.4,1.4,0,0,1-1.82-.71,2.13,2.13,0,0,1,.28-2.07,4.55,4.55,0,0,1,1.7-1.33,5.43,5.43,0,0,0-1.15,2.33C260.76,127,261,128.3,261.73,128.09Z"/><path class="cls-8" d="M270.08,148.46a.63.63,0,0,1-.74.62,1,1,0,0,1-.76-.74,2.76,2.76,0,0,1,0-1.11,7.47,7.47,0,0,1,.61-2.47,3.45,3.45,0,0,1,1.76-1.77,1.13,1.13,0,0,1,.16,1.21,7.09,7.09,0,0,1-.7,1,3.54,3.54,0,0,0-.43,3.08C270.06,148.31,270,148.45,270.08,148.46Z"/></g><g id="Character_2" data-name="Character 2"><path class="cls-5" d="M157.41,211.89H86.21a9.89,9.89,0,0,0-9.9,9.89v54.13a9.9,9.9,0,0,0,9.9,9.9H140a17.5,17.5,0,0,0,17.36,15.36c.39,0,.78,0,1.17-.06-2.78-3.66-5.05-9-6.54-15.3h5.45a9.9,9.9,0,0,0,9.9-9.9V221.78A9.89,9.89,0,0,0,157.41,211.89Z"/><path class="cls-6" d="M157.41,211.89H86.21a9.89,9.89,0,0,0-9.9,9.89v54.13a9.9,9.9,0,0,0,9.9,9.9H140a17.5,17.5,0,0,0,17.36,15.36c.39,0,.78,0,1.17-.06-2.78-3.66-5.05-9-6.54-15.3h5.45a9.9,9.9,0,0,0,9.9-9.9V221.78A9.89,9.89,0,0,0,157.41,211.89Z"/><path class="cls-27" d="M171.67,234.88l5.54-5.12,4.74,8.76s-5.49,4.2-8.74,1.62Z"/><polygon class="cls-27" points="171.67 234.88 167.9 242.9 173.07 247.18 177.59 239.85 171.67 234.88"/><path class="cls-27" d="M182.48,230.94l.91,3.32a3.92,3.92,0,0,1-1.44,4.26l-2,1.33-5.66-9.93,4.85-1.22A2.82,2.82,0,0,1,182.48,230.94Z"/><path class="cls-27" d="M171.67,234.88s2-6.18,1.68-8.07c-.17-1.13,1-.94,1.94-.61a1.89,1.89,0,0,1,1.28,1.73c.08,2,0,5.9-1.53,6.15A19.81,19.81,0,0,0,171.67,234.88Z"/><path class="cls-8" d="M178.14,241.31a10.81,10.81,0,0,0-5.91-3.4l-1.68-.35c-1-.2-1.19,0-1.31.29l-.48.75-1,1.49c-.66,1-1.32,2-2,3-1.33,2-2.72,3.87-4.12,5.68a43.29,43.29,0,0,1-4.31,4.91l-.41.38c-.52-.57-1-1.15-1.52-1.76a67.66,67.66,0,0,1-4.09-5.78c-1.29-2-5.47-8.06-6.61-10.23-.57-1.08-1.13-2.18-1.66-3.28l-.77-1.66c-.23-.52-.51-1.14-.67-1.55l-.11-.25a7.5,7.5,0,1,0-13.69,6.13c.36.81.64,1.39,1,2.06l1,1.92q1,1.91,2,3.75c1.42,2.47,5.94,8.77,7.6,11.13a64.35,64.35,0,0,0,5.51,6.88,47,47,0,0,0,6.91,6.26l.31.23a6.26,6.26,0,0,0,5.4.95,16.43,16.43,0,0,0,5.59-2.92,28.19,28.19,0,0,0,3.51-3.31,54.18,54.18,0,0,0,5.11-6.74c1.47-2.27,2.76-4.59,4-6.92.59-1.17,1.17-2.34,1.71-3.54l.8-1.8.39-.91C178.76,242.4,178.82,242.07,178.14,241.31Z"/><path class="cls-19" d="M141.08,238.13l-5.5,3.88L134,245.78c.27.5.53,1,.81,1.49,1.41,2.47,3,4.88,4.62,7.24a64.35,64.35,0,0,0,5.51,6.88q1.43,1.55,3,3C145.24,258.08,141.08,238.13,141.08,238.13Z"/><path class="cls-8" d="M91.92,268.53c.43,10-1.15,9.54-1.19,17.28h48.73c2.65-23.61,1.41-27.24,1.46-42.91,0-8.83-1.35-17.82-10.13-18.74a149.74,149.74,0,0,0-31,.2,11.67,11.67,0,0,0-10.14,13.25C91.62,250.94,90.55,258.49,91.92,268.53Z"/><path class="cls-28" d="M126.34,223.78a158.62,158.62,0,0,0-19.5-.05c.14,2,1.66,7,12.73,11.32,0,0,2.47-5.36,4.55-2.94,0,0,1.67-3.08,5.25,2.58C129.37,234.69,134.71,229,126.34,223.78Z"/><path class="cls-19" d="M100,238c1.07,9.27-4.85,24.78-8,32.27,0-.53,0-1.1,0-1.7-.86-6.27-.76-11.56-1-17.89Z"/><path class="cls-27" d="M111.62,206a41.54,41.54,0,0,1-3.44,17.7,1.11,1.11,0,0,0,.27,1.25,21.94,21.94,0,0,0,14.7,5.32c6.55.09,6.17-2,4.62-4.26a2.74,2.74,0,0,0-.86-.8c-4.48-2.65-4.64-6.21-3.38-8.36Z"/><path class="cls-21" d="M111.63,206l11.9,10.85a5,5,0,0,0-.25,4.55,9.94,9.94,0,0,1-6.85-2.45c-3.07-2.61-4.11-5.69-4.88-10C111.61,208,111.63,207,111.63,206Z"/><path class="cls-27" d="M108.08,200.41c.52,8-.61,9.27,3.45,13.32,6.11,6.1,16.06,7.26,17.47-.84,1.26-7.3,2-20.51-5.89-23.59A11,11,0,0,0,108.08,200.41Z"/><path class="cls-8" d="M127.5,209s-2.81-.89-10.78-1.23c.85,2.87,2.52,5.25,6.6,5.38S127.5,209,127.5,209Z"/><path class="cls-29" d="M121.5,210.86a6.72,6.72,0,0,1,4.4,1.55,3.81,3.81,0,0,1-2.57.74,6.61,6.61,0,0,1-4.4-1.55A3.81,3.81,0,0,1,121.5,210.86Z"/><path class="cls-3" d="M127.14,208.92c-.24.59-.49,1.18-1.29,1.35a36.55,36.55,0,0,1-7-1,2.27,2.27,0,0,1-1.75-1.46A55.16,55.16,0,0,1,127.14,208.92Z"/><path class="cls-29" d="M124.37,201.58a18.41,18.41,0,0,0,3.11,4.06,3.06,3.06,0,0,1-2.41.84Z"/><path class="cls-8" d="M116.48,198.13a.51.51,0,0,1-.18-.09.4.4,0,0,1,0-.57,4,4,0,0,1,3.4-1.39.4.4,0,0,1-.12.79h0a3.22,3.22,0,0,0-2.69,1.13A.4.4,0,0,1,116.48,198.13Z"/><path class="cls-8" d="M129.76,199.55a.4.4,0,0,1-.36-.12,3.16,3.16,0,0,0-2.69-1.06.4.4,0,0,1-.46-.33.4.4,0,0,1,.33-.46,4,4,0,0,1,3.41,1.3.4.4,0,0,1,0,.57A.42.42,0,0,1,129.76,199.55Z"/><path class="cls-8" d="M77.08,270.15a5.52,5.52,0,0,0,.17,1.13,58.5,58.5,0,0,0,3.51,9.31c.73,1.59,1.48,3.14,2.25,4.68a10,10,0,0,0,3.2.54H97l-1.07-2.39c-1.19-2.61-2.29-5.24-3.29-7.82a55.67,55.67,0,0,1-2.1-6.44,18.6,18.6,0,0,1,.51-2.48c.31-1.21.73-2.5,1.21-3.82,1-2.63,2.1-5.34,3.3-8s2.53-5.4,3.87-8.08,2.74-5.42,4.13-8l0-.09.07-.15a7.5,7.5,0,1,0-13.35-6.84c-1.5,2.94-2.85,5.75-4.21,8.66s-2.59,5.84-3.79,8.85S80,255.29,79,258.54c-.49,1.62-.93,3.31-1.3,5.12a26.44,26.44,0,0,0-.63,6.28Z"/><path class="cls-27" d="M104.45,205.76a7.27,7.27,0,0,0,3.69,3.89c2.14.92,3.32-1.17,2.81-3.57-.45-2.16-2.12-5.24-4.31-5.13S103.54,203.57,104.45,205.76Z"/><path class="cls-13" d="M118.37,200.85c0,.69.29,1.28.76,1.31s.86-.51.89-1.22-.29-1.28-.75-1.31S118.41,200.14,118.37,200.85Z"/><path class="cls-13" d="M126.28,201.31c0,.7.3,1.29.75,1.31s.86-.51.91-1.21-.3-1.29-.75-1.32S126.32,200.6,126.28,201.31Z"/></g><g id="Character_1" data-name="Character 1"><path class="cls-5" d="M149.16,71.62H78a9.89,9.89,0,0,0-9.89,9.9v54.12a9.89,9.89,0,0,0,9.89,9.9h53.77a17.48,17.48,0,0,0,17.35,15.37c.4,0,.79,0,1.18-.06-2.78-3.67-5.06-9-6.54-15.31h5.45a9.9,9.9,0,0,0,9.9-9.9V81.52A9.9,9.9,0,0,0,149.16,71.62Z"/><path class="cls-6" d="M149.16,71.62H78a9.89,9.89,0,0,0-9.89,9.9v54.12a9.89,9.89,0,0,0,9.89,9.9h53.77a17.48,17.48,0,0,0,17.35,15.37c.4,0,.79,0,1.18-.06-2.78-3.67-5.06-9-6.54-15.31h5.45a9.9,9.9,0,0,0,9.9-9.9V81.52A9.9,9.9,0,0,0,149.16,71.62Z"/><path class="cls-5" d="M131.72,145.54a124.68,124.68,0,0,1,0-17.46c.62-10.24-2.44-21.31-4.75-23.21-3.33-2.74-6.43-5.33-7.53-1.87-.64,2-.83,5.3-.79,9,.1,8.93,2,20.09,2.9,25.24.33,1.82,1.16,8.31,1.16,8.31Z"/><path class="cls-5" d="M125.5,105.31a3.86,3.86,0,0,0-2.79-3.12c-2.5-.67-6.82-1.76-10.75-2.46a100.62,100.62,0,0,0-14-1.28c-3-.12-5.88,0-8.19.1a4.43,4.43,0,0,0-.81.14,3.86,3.86,0,0,0-2.66,4.77c5.93,21.16,7.16,31.3,7.47,42.08h28.94c1.35-9.78,4-17.81,4.24-23.56A67.9,67.9,0,0,0,125.5,105.31Z"/><path class="cls-20" d="M125.5,105.31a3.86,3.86,0,0,0-2.79-3.12c-2.5-.67-6.82-1.76-10.75-2.46a100.62,100.62,0,0,0-14-1.28c-3-.12-5.88,0-8.19.1a4.43,4.43,0,0,0-.81.14,3.86,3.86,0,0,0-2.66,4.77c5.93,21.16,7.16,31.3,7.47,42.08h28.94c1.35-9.78,4-17.81,4.24-23.56A67.9,67.9,0,0,0,125.5,105.31Z"/><path class="cls-30" d="M113.61,94.84c-1.9,2.57-3.29,5.61-.31,9a4.09,4.09,0,0,1,1.07,2.57c0,1.53-.85,3-5.83.08-7.22-4.25-6.61-9-6.61-9,3.79-1.15,6.06-9.12,6.94-13.67Z"/><path class="cls-31" d="M109.27,90.62c-.55,1.94,1.5,5,3.06,6.26a13.38,13.38,0,0,1,1.27-2l-2.8-6.55A7.09,7.09,0,0,0,109.27,90.62Z"/><path class="cls-8" d="M128.27,70.86c2.54,3.22-3.18,12.92-3.8,10.89-1-3.31-2.46-10-2.44-12.76C122.07,64.66,125.74,67.64,128.27,70.86Z"/><path class="cls-30" d="M107.21,71.87a10.13,10.13,0,0,1,13.87-3.61c6.81,3.95,6.29,15,3.79,21.36-2.74,7.1-12,8-16.79,1.56-3.22-4.31-2.81-7.43-2.24-14.84A10.07,10.07,0,0,1,107.21,71.87Z"/><path class="cls-8" d="M116.26,80.09c-.05.6.22,1.12.61,1.17s.76-.43.83-1-.22-1.12-.61-1.16S116.35,79.52,116.26,80.09Z"/><path class="cls-8" d="M116.89,79.14l1.49-.27S117.54,79.89,116.89,79.14Z"/><path class="cls-8" d="M123.84,81.78c0,.6.22,1.12.61,1.17s.76-.43.83-1-.22-1.12-.61-1.16S123.93,81.21,123.84,81.78Z"/><path class="cls-8" d="M124.47,80.83l1.49-.27S125.12,81.58,124.47,80.83Z"/><path class="cls-32" d="M121,86.35a2.62,2.62,0,0,0,2.19-.11,16,16,0,0,1-1.6-4.12Z"/><path class="cls-8" d="M115.29,86.09a.18.18,0,0,1,.08-.23.17.17,0,0,1,.24.08,4.75,4.75,0,0,0,3.61,2.39.18.18,0,0,1,.14.2h0a.17.17,0,0,1-.19.14,4.92,4.92,0,0,1-.85-.17A5,5,0,0,1,115.29,86.09Z"/><path class="cls-8" d="M116,76.19h0a.35.35,0,0,1,.07-.49,4.84,4.84,0,0,1,4-.48.35.35,0,0,1-.22.67,4.1,4.1,0,0,0-3.35.36.34.34,0,0,1-.41,0Z"/><path class="cls-8" d="M126.91,78.5a2.77,2.77,0,0,0-2.22-1.27h0a.36.36,0,0,1-.36-.35.35.35,0,0,1,.35-.36,3.51,3.51,0,0,1,2.82,1.58h0a.36.36,0,0,1-.1.49.36.36,0,0,1-.35,0A.79.79,0,0,1,126.91,78.5Z"/><path class="cls-8" d="M117.81,70.39a7.68,7.68,0,0,0-5.32,3.86c-.51.94-3.79,3-4.35,3.93-1.76,2.92.16,11.27-.67,11.9s-.54-1.85-1.33-2.32a15.6,15.6,0,0,1-2.4-1.35c-1-.84-4.47-9.89-.19-15.37a14.59,14.59,0,0,1,8.76-5.64,13.59,13.59,0,0,1,10.16,2.31c.93.67,2.56,2.5,0,3.32-.7.22-.73-.34-1.46-.52A7.49,7.49,0,0,0,117.81,70.39Z"/><path class="cls-8" d="M100.79,78.18c2.47-2.4,5.55-2.4,8.27-2.4a10.16,10.16,0,0,0,3.83-.43c2.74-1.2,4.42-5.1,4.73-6.39a3.24,3.24,0,0,1,2.28-2.15,2.78,2.78,0,0,1,2.29,1c.49.71.44,1.73-.15,3l.39.17c.65-1.45.68-2.61.11-3.45a3.26,3.26,0,0,0-2.66-1.19,3.61,3.61,0,0,0-2.67,2.48c-.28,1.18-1.93,5-4.49,6.1a10.07,10.07,0,0,1-3.66.39c-2.66,0-6,0-8.56,2.52Z"/><path class="cls-33" d="M100.79,78.18c2.47-2.4,5.55-2.4,8.27-2.4a10.16,10.16,0,0,0,3.83-.43c2.74-1.2,4.42-5.1,4.73-6.39a3.24,3.24,0,0,1,2.28-2.15,2.78,2.78,0,0,1,2.29,1c.49.71.44,1.73-.15,3l.39.17c.65-1.45.68-2.61.11-3.45a3.26,3.26,0,0,0-2.66-1.19,3.61,3.61,0,0,0-2.67,2.48c-.28,1.18-1.93,5-4.49,6.1a10.07,10.07,0,0,1-3.66.39c-2.66,0-6,0-8.56,2.52Z"/><path class="cls-30" d="M102.91,81a2.43,2.43,0,0,1,2.73-2.09c1.84.27,2.68,2.75,2.68,4.38,0,1.79-1.33,3.12-2.95,2.11A5.48,5.48,0,0,1,103,82,2.4,2.4,0,0,1,102.91,81Z"/><path class="cls-5" d="M106.18,107.38c-.39,5.12-5.12,24.46-15.37,25a6.49,6.49,0,0,1-4.46-1.58l0,0c-8.26-5-1.77-29.1-.11-30.51A5.68,5.68,0,0,1,95.34,103a20.42,20.42,0,0,0,.51-2.32c.43-2.62,1.85-8.69,4.47-9.13,1.58-.27,4.83-.42,5.77.88S106.83,98.92,106.18,107.38Z"/><g class="cls-34"><path d="M105.64,78.89l0,.45.47,4.44V89.5l.78-3.4a8,8,0,0,0,.13-2.71l-.55-4.25Z"/></g><path class="cls-30" d="M100.5,92.59l-1.23-8.92,7.43,0s-.61,6.69-2.47,9Z"/><polygon class="cls-30" points="100.58 77.59 106.08 78.56 106.67 83.6 99.27 83.67 100.58 77.59"/><path class="cls-21" d="M93.11,111.11s-4.45,10.29-4.59,6.22C88.38,112.9,93.11,111.11,93.11,111.11Z"/></g><g id="Graphic"><path class="cls-5" d="M367.39,171.23H339.87a4.75,4.75,0,0,0-4.75,4.74V193.7a4.75,4.75,0,0,0,4.75,4.74h7.91l3.53,4.62a2.91,2.91,0,0,0,4.63,0l3.53-4.62h7.92a4.74,4.74,0,0,0,4.74-4.74V176A4.74,4.74,0,0,0,367.39,171.23Z"/><path class="cls-16" d="M367.39,171.23H339.87a4.75,4.75,0,0,0-4.75,4.74V193.7a4.75,4.75,0,0,0,4.75,4.74h7.91l3.53,4.62a2.91,2.91,0,0,0,4.63,0l3.53-4.62h7.92a4.74,4.74,0,0,0,4.74-4.74V176A4.74,4.74,0,0,0,367.39,171.23Z"/><path class="cls-5" d="M365.79,183.41,357,178v3.23h-4a9.76,9.76,0,0,0-9.76,9.76,10.19,10.19,0,0,0,.24,2.15,9.78,9.78,0,0,1,9.52-7.61h4v3.22Z"/><path class="cls-5" d="M173.75,62.77h21.1a3.64,3.64,0,0,1,3.64,3.63V80a3.64,3.64,0,0,1-3.64,3.63h-6.07l-2.7,3.54a2.23,2.23,0,0,1-3.55,0l-2.71-3.54h-6.07A3.63,3.63,0,0,1,170.12,80V66.4A3.63,3.63,0,0,1,173.75,62.77Z"/><path class="cls-16" d="M173.75,62.77h21.1a3.64,3.64,0,0,1,3.64,3.63V80a3.64,3.64,0,0,1-3.64,3.63h-6.07l-2.7,3.54a2.23,2.23,0,0,1-3.55,0l-2.71-3.54h-6.07A3.63,3.63,0,0,1,170.12,80V66.4A3.63,3.63,0,0,1,173.75,62.77Z"/><path class="cls-5" d="M175,72.11,181.73,68v2.48h3.09a7.5,7.5,0,0,1,7.3,9.13,7.49,7.49,0,0,0-7.3-5.83h-3.09v2.47Z"/></g></g></svg>